<?xml version="1.0" standalone="no"?>
<!DOCTYPE svg PUBLIC "-//W3C//DTD SVG 1.1//EN" "http://www.w3.org/Graphics/SVG/1.1/DTD/svg11.dtd" >
<svg xmlns="http://www.w3.org/2000/svg">
<metadata>Generated by IcoMoon</metadata>
<defs>
<font id="ezGolf" horiz-adv-x="1024">
<font-face units-per-em="1024" ascent="960" descent="-64" />
<missing-glyph horiz-adv-x="1024" />
<glyph unicode="&#x20;" horiz-adv-x="512" d="" />
<glyph unicode="&#xe900;" glyph-name="activity" d="M115.2 222.293c16.64-16.64 43.52-16.64 60.16 0l195.84 195.84c3.947 3.955 8.636 7.091 13.797 9.233s10.695 3.243 16.283 3.243c5.588 0 11.121-1.101 16.282-3.243s9.85-5.278 13.797-9.233l49.92-49.92c24-23.97 56.533-37.436 90.453-37.436s66.453 13.466 90.453 37.436l178.347 177.92 61.44-61.44c2.982-2.923 6.758-4.907 10.854-5.709 4.1-0.798 8.341-0.375 12.203 1.216 3.861 1.587 7.172 4.275 9.519 7.731 2.351 3.452 3.631 7.518 3.691 11.695v183.040c0.119 2.797-0.341 5.588-1.344 8.201s-2.53 4.993-4.489 6.992c-1.963 1.999-4.309 3.575-6.903 4.632-2.59 1.056-5.372 1.57-8.171 1.509h-183.040c-19.2 0-28.587-23.040-14.933-36.267l61.44-61.44-177.92-177.92c-3.947-3.955-8.636-7.095-13.798-9.233-5.158-2.142-10.692-3.247-16.282-3.247s-11.119 1.105-16.282 3.247c-5.163 2.138-9.852 5.278-13.798 9.233l-49.92 49.92c-24 23.97-56.533 37.436-90.453 37.436s-66.453-13.466-90.453-37.436l-196.693-195.84c-16.213-16.64-16.213-43.947 0-60.16z" />
<glyph unicode="&#xe901;" glyph-name="airplay" d="M358.827 21.333h305.92c37.973 0 57.173 46.080 30.293 72.96l-153.173 153.173c-3.947 3.955-8.636 7.095-13.798 9.233-5.158 2.142-10.692 3.243-16.282 3.243s-11.123-1.101-16.282-3.243c-5.163-2.138-9.852-5.278-13.798-9.233l-153.173-153.173c-26.453-26.88-7.68-72.96 30.293-72.96zM896 832h-768c-46.933 0-85.333-38.4-85.333-85.333v-512c0-46.933 38.4-85.333 85.333-85.333h128c23.467 0 42.667 19.2 42.667 42.667s-19.2 42.667-42.667 42.667h-85.333c-23.467 0-42.667 19.2-42.667 42.667v426.667c0 23.467 19.2 42.667 42.667 42.667h682.667c23.467 0 42.667-19.2 42.667-42.667v-426.667c0-23.467-19.2-42.667-42.667-42.667h-85.333c-23.467 0-42.667-19.2-42.667-42.667s19.2-42.667 42.667-42.667h128c46.933 0 85.333 38.4 85.333 85.333v512c0 46.933-38.4 85.333-85.333 85.333z" />
<glyph unicode="&#xe902;" glyph-name="alert-circle" d="M512 661.333c23.467 0 42.667-19.2 42.667-42.667v-170.667c0-23.467-19.2-42.667-42.667-42.667s-42.667 19.2-42.667 42.667v170.667c0 23.467 19.2 42.667 42.667 42.667zM511.573 874.667c-235.52 0-426.24-191.147-426.24-426.667s190.72-426.667 426.24-426.667c235.947 0 427.093 191.147 427.093 426.667s-191.147 426.667-427.093 426.667zM512 106.667c-188.587 0-341.333 152.747-341.333 341.333s152.747 341.333 341.333 341.333c188.587 0 341.333-152.747 341.333-341.333s-152.747-341.333-341.333-341.333zM554.667 234.667h-85.333v85.333h85.333v-85.333z" />
<glyph unicode="&#xe903;" glyph-name="alert-octagon" d="M883.627 619.52l-199.68 199.68c-8.107 8.107-19.2 12.8-30.293 12.8h-283.307c-11.093 0-22.187-4.693-29.867-12.373l-200.107-200.107c-7.68-7.68-12.373-18.773-12.373-29.867v-282.88c0-11.52 4.693-22.187 12.373-30.293l199.68-199.68c8.107-8.107 19.2-12.8 30.293-12.8h282.88c11.52 0 22.187 4.693 30.293 12.373l199.68 199.68c3.972 3.972 7.113 8.7 9.237 13.901s3.191 10.773 3.136 16.393v283.307c0.427 11.093-4.267 22.187-11.947 29.867v0zM810.667 324.267l-174.933-174.933h-247.467l-174.933 174.933v247.467l174.933 174.933h247.467l174.933-174.933v-247.467zM512 234.667c23.565 0 42.667 19.102 42.667 42.667s-19.102 42.667-42.667 42.667c-23.565 0-42.667-19.102-42.667-42.667s19.102-42.667 42.667-42.667zM512 661.333c-23.467 0-42.667-19.2-42.667-42.667v-213.333c0-23.467 19.2-42.667 42.667-42.667s42.667 19.2 42.667 42.667v213.333c0 23.467-19.2 42.667-42.667 42.667z" />
<glyph unicode="&#xe904;" glyph-name="alert-triangle" d="M512 704.427l321.28-555.094h-642.56l321.28 555.094zM116.907 192c-32.853-56.747 8.107-128 73.813-128h642.56c65.707 0 106.667 71.253 73.813 128l-321.28 555.094c-32.853 56.747-114.773 56.747-147.627 0l-321.28-555.094zM469.333 490.667v-85.333c0-23.467 19.2-42.667 42.667-42.667s42.667 19.2 42.667 42.667v85.333c0 23.467-19.2 42.667-42.667 42.667s-42.667-19.2-42.667-42.667zM469.333 277.333h85.333v-85.333h-85.333v85.333z" />
<glyph unicode="&#xe905;" glyph-name="align-center" d="M298.667 277.333c0-23.467 19.2-42.667 42.667-42.667h341.333c23.467 0 42.667 19.2 42.667 42.667s-19.2 42.667-42.667 42.667h-341.333c-23.467 0-42.667-19.2-42.667-42.667zM170.667 64h682.667c23.467 0 42.667 19.2 42.667 42.667s-19.2 42.667-42.667 42.667h-682.667c-23.467 0-42.667-19.2-42.667-42.667s19.2-42.667 42.667-42.667zM170.667 405.333h682.667c23.467 0 42.667 19.2 42.667 42.667s-19.2 42.667-42.667 42.667h-682.667c-23.467 0-42.667-19.2-42.667-42.667s19.2-42.667 42.667-42.667zM298.667 618.667c0-23.467 19.2-42.667 42.667-42.667h341.333c23.467 0 42.667 19.2 42.667 42.667s-19.2 42.667-42.667 42.667h-341.333c-23.467 0-42.667-19.2-42.667-42.667zM128 789.333c0-23.467 19.2-42.667 42.667-42.667h682.667c23.467 0 42.667 19.2 42.667 42.667s-19.2 42.667-42.667 42.667h-682.667c-23.467 0-42.667-19.2-42.667-42.667z" />
<glyph unicode="&#xe906;" glyph-name="align-justify" d="M170.667 64h682.667c23.467 0 42.667 19.2 42.667 42.667s-19.2 42.667-42.667 42.667h-682.667c-23.467 0-42.667-19.2-42.667-42.667s19.2-42.667 42.667-42.667zM170.667 234.667h682.667c23.467 0 42.667 19.2 42.667 42.667s-19.2 42.667-42.667 42.667h-682.667c-23.467 0-42.667-19.2-42.667-42.667s19.2-42.667 42.667-42.667zM170.667 405.333h682.667c23.467 0 42.667 19.2 42.667 42.667s-19.2 42.667-42.667 42.667h-682.667c-23.467 0-42.667-19.2-42.667-42.667s19.2-42.667 42.667-42.667zM170.667 576h682.667c23.467 0 42.667 19.2 42.667 42.667s-19.2 42.667-42.667 42.667h-682.667c-23.467 0-42.667-19.2-42.667-42.667s19.2-42.667 42.667-42.667zM128 789.333c0-23.467 19.2-42.667 42.667-42.667h682.667c23.467 0 42.667 19.2 42.667 42.667s-19.2 42.667-42.667 42.667h-682.667c-23.467 0-42.667-19.2-42.667-42.667z" />
<glyph unicode="&#xe907;" glyph-name="align-left" d="M597.333 320h-426.667c-23.467 0-42.667-19.2-42.667-42.667s19.2-42.667 42.667-42.667h426.667c23.467 0 42.667 19.2 42.667 42.667s-19.2 42.667-42.667 42.667zM597.333 661.333h-426.667c-23.467 0-42.667-19.2-42.667-42.667s19.2-42.667 42.667-42.667h426.667c23.467 0 42.667 19.2 42.667 42.667s-19.2 42.667-42.667 42.667zM170.667 405.333h682.667c23.467 0 42.667 19.2 42.667 42.667s-19.2 42.667-42.667 42.667h-682.667c-23.467 0-42.667-19.2-42.667-42.667s19.2-42.667 42.667-42.667zM170.667 64h682.667c23.467 0 42.667 19.2 42.667 42.667s-19.2 42.667-42.667 42.667h-682.667c-23.467 0-42.667-19.2-42.667-42.667s19.2-42.667 42.667-42.667zM128 789.333c0-23.467 19.2-42.667 42.667-42.667h682.667c23.467 0 42.667 19.2 42.667 42.667s-19.2 42.667-42.667 42.667h-682.667c-23.467 0-42.667-19.2-42.667-42.667z" />
<glyph unicode="&#xe908;" glyph-name="align-right" d="M170.667 64h682.667c23.467 0 42.667 19.2 42.667 42.667s-19.2 42.667-42.667 42.667h-682.667c-23.467 0-42.667-19.2-42.667-42.667s19.2-42.667 42.667-42.667zM426.667 234.667h426.667c23.467 0 42.667 19.2 42.667 42.667s-19.2 42.667-42.667 42.667h-426.667c-23.467 0-42.667-19.2-42.667-42.667s19.2-42.667 42.667-42.667zM170.667 405.333h682.667c23.467 0 42.667 19.2 42.667 42.667s-19.2 42.667-42.667 42.667h-682.667c-23.467 0-42.667-19.2-42.667-42.667s19.2-42.667 42.667-42.667zM426.667 576h426.667c23.467 0 42.667 19.2 42.667 42.667s-19.2 42.667-42.667 42.667h-426.667c-23.467 0-42.667-19.2-42.667-42.667s19.2-42.667 42.667-42.667zM128 789.333c0-23.467 19.2-42.667 42.667-42.667h682.667c23.467 0 42.667 19.2 42.667 42.667s-19.2 42.667-42.667 42.667h-682.667c-23.467 0-42.667-19.2-42.667-42.667z" />
<glyph unicode="&#xe909;" glyph-name="anchor" d="M554.667 576v50.347c49.493 17.92 85.333 64.853 85.333 120.32 0 70.4-57.6 128-128 128s-128-57.6-128-128c0-55.467 35.84-102.4 85.333-120.32v-50.347h-85.333c-23.467 0-42.667-19.2-42.667-42.667s19.2-42.667 42.667-42.667h85.333v-380.587c-94.72 14.080-195.84 71.68-236.8 143.787l48.64 48.64c9.387 9.387 8.107 24.32-2.133 32l-116.907 87.893c-3.169 2.377-6.938 3.823-10.884 4.181-3.946 0.354-7.913-0.397-11.456-2.167s-6.524-4.493-8.607-7.863c-2.083-3.371-3.186-7.253-3.186-11.217v-85.333c0-165.547 209.92-298.667 384-298.667s384 133.12 384 298.667v85.333c0 3.964-1.105 7.846-3.187 11.217s-5.060 6.093-8.606 7.863c-3.541 1.771-7.509 2.522-11.456 2.167-3.947-0.358-7.714-1.805-10.884-4.181l-116.907-87.467c-10.24-7.68-11.52-23.040-2.133-32l48.64-48.64c-40.96-72.107-142.080-129.707-236.8-143.787v380.16h85.333c23.467 0 42.667 19.2 42.667 42.667s-19.2 42.667-42.667 42.667h-85.333zM512 789.333c23.467 0 42.667-19.2 42.667-42.667s-19.2-42.667-42.667-42.667c-23.467 0-42.667 19.2-42.667 42.667s19.2 42.667 42.667 42.667z" />
<glyph unicode="&#xe90a;" glyph-name="aperture" d="M608 863.573l-3.413 1.707-0.427-0.853c-29.867 6.4-60.587 10.24-92.16 10.24-235.52 0-426.667-191.147-426.667-426.667s191.147-426.667 426.667-426.667c235.52 0 426.667 191.147 426.667 426.667 0 202.667-141.227 372.053-330.667 415.573zM828.16 576h-340.907l115.627 200.533c102.4-28.16 185.6-103.253 225.28-200.533zM558.933 785.92l-169.813-295.253-116.053 200.533c63.606 62.911 149.471 98.177 238.933 98.133 15.787 0 31.573-1.28 46.933-3.413zM243.2 657.493l121.173-209.493 49.067-85.333h-231.68c-6.827 27.307-11.093 55.893-11.093 85.333 0 78.933 27.307 151.467 72.533 209.493zM195.84 320h340.48l-115.627-200.533c-50.279 14.089-96.674 39.479-135.643 74.236-38.969 34.752-69.482 77.952-89.21 126.298v0zM465.067 110.507l170.24 294.827 116.053-200.533c-63.821-62.852-149.79-98.095-239.36-98.133-16.213 0-31.573 1.707-46.933 3.84v0zM780.8 238.507l-170.667 294.827h231.68c7.253-27.307 11.52-55.893 11.52-85.333 0-78.933-27.307-151.467-72.533-209.493z" />
<glyph unicode="&#xe90b;" glyph-name="apps" d="M170.666 618.667h170.667v170.667h-170.667v-170.667zM426.666 106.667h170.667v170.667h-170.667v-170.667zM170.666 106.667h170.667v170.667h-170.667v-170.667zM170.666 362.667h170.667v170.667h-170.667v-170.667zM426.666 362.667h170.667v170.667h-170.667v-170.667zM682.667 789.333v-170.667h170.667v170.667h-170.667zM426.666 618.667h170.667v170.667h-170.667v-170.667zM682.667 362.667h170.667v170.667h-170.667v-170.667zM682.667 106.667h170.667v170.667h-170.667v-170.667z" />
<glyph unicode="&#xe90c;" glyph-name="archive" d="M810.667 832h-597.333c-46.933 0-85.333-38.4-85.333-85.333v-597.333c0-22.63 8.99-44.335 24.994-60.339s37.708-24.994 60.34-24.994h597.333c46.933 0 85.333 38.4 85.333 85.333v597.333c0 46.933-38.4 85.333-85.333 85.333zM810.667 149.333h-597.333v128h151.893c29.44-50.773 84.053-85.333 147.2-85.333s117.333 34.56 147.2 85.333h151.040v-128zM810.667 362.667h-212.907c0-46.933-38.4-85.333-85.333-85.333s-85.333 38.4-85.333 85.333h-213.76v384h597.333v-384z" />
<glyph unicode="&#xe90d;" glyph-name="arrow-down" d="M469.333 746.667v-476.587l-208.213 208.213c-16.64 16.64-43.947 16.64-60.587 0-3.956-3.947-7.094-8.636-9.235-13.798-2.141-5.158-3.243-10.692-3.243-16.282s1.102-11.123 3.243-16.282c2.141-5.163 5.279-9.852 9.235-13.798l281.173-281.173c16.64-16.64 43.52-16.64 60.16 0l281.173 281.173c3.951 3.951 7.083 8.64 9.22 13.803 2.138 5.158 3.238 10.692 3.238 16.277s-1.101 11.119-3.238 16.277c-2.138 5.163-5.269 9.852-9.22 13.803s-8.64 7.083-13.803 9.22c-5.158 2.138-10.692 3.238-16.277 3.238s-11.119-1.101-16.277-3.238c-5.163-2.138-9.852-5.269-13.803-9.22l-208.213-208.213v476.587c0 23.467-19.2 42.667-42.667 42.667s-42.667-19.2-42.667-42.667z" />
<glyph unicode="&#xe90e;" glyph-name="arrow-down-circle" d="M512 789.333c188.16 0 341.333-153.173 341.333-341.333s-153.173-341.333-341.333-341.333c-188.16 0-341.333 153.173-341.333 341.333s153.173 341.333 341.333 341.333zM512 874.667c-235.52 0-426.667-191.147-426.667-426.667s191.147-426.667 426.667-426.667c235.52 0 426.667 191.147 426.667 426.667s-191.147 426.667-426.667 426.667zM554.667 448v128c0 23.467-19.2 42.667-42.667 42.667s-42.667-19.2-42.667-42.667v-128h-76.373c-19.2 0-28.587-23.040-14.933-36.267l119.040-119.040c8.533-8.533 21.76-8.533 30.293 0l119.040 119.040c2.923 2.982 4.907 6.754 5.705 10.854 0.802 4.1 0.38 8.341-1.212 12.203-1.587 3.861-4.279 7.172-7.731 9.519-3.452 2.351-7.518 3.631-11.695 3.691h-76.8z" />
<glyph unicode="&#xe90f;" glyph-name="arrow-down-left" d="M341.333 337.673l353.83 353.831c16.661 16.662 43.678 16.662 60.339 0s16.661-43.677 0-60.34l-353.83-353.83h323.66c23.565 0 42.667-19.102 42.667-42.667s-19.102-42.667-42.667-42.667h-426.667c-5.785 0-11.302 1.152-16.332 3.238-4.957 2.048-9.606 5.077-13.654 9.075-0.092 0.090-0.183 0.183-0.274 0.273-7.668 7.714-12.407 18.342-12.407 30.080v426.667c0 23.564 19.103 42.667 42.667 42.667s42.667-19.103 42.667-42.667v-323.661z" />
<glyph unicode="&#xe910;" glyph-name="arrow-down-right" d="M622.327 277.333l-353.831 353.83c-16.662 16.663-16.662 43.677 0 60.34s43.677 16.662 60.34 0l353.83-353.831v323.661c0 23.564 19.102 42.667 42.667 42.667s42.667-19.103 42.667-42.667v-426.667c0-5.786-1.152-11.302-3.238-16.333-2.035-4.915-5.026-9.532-8.981-13.555-0.183-0.188-0.371-0.375-0.559-0.559-7.697-7.556-18.249-12.22-29.888-12.22h-426.667c-23.564 0-42.667 19.102-42.667 42.667s19.103 42.667 42.667 42.667h323.661z" />
<glyph unicode="&#xe911;" glyph-name="arrow-left" d="M810.667 490.667h-476.587l208.214 208.213c16.64 16.64 16.64 43.947 0 60.587-3.947 3.956-8.636 7.094-13.798 9.235s-10.692 3.243-16.282 3.243c-5.589 0-11.123-1.102-16.282-3.243-5.163-2.141-9.852-5.279-13.798-9.235l-281.174-281.173c-3.956-3.947-7.094-8.636-9.235-13.798s-3.243-10.692-3.243-16.282c0-5.589 1.102-11.123 3.243-16.282 2.141-5.163 5.279-9.852 9.235-13.798l281.174-281.173c3.951-3.951 8.64-7.083 13.798-9.22 5.163-2.138 10.697-3.238 16.282-3.238s11.119 1.101 16.277 3.238c5.163 2.138 9.852 5.269 13.803 9.22s7.083 8.64 9.22 13.803c2.138 5.158 3.238 10.692 3.238 16.277s-1.101 11.119-3.238 16.277c-2.138 5.163-5.269 9.852-9.22 13.803l-208.214 208.213h476.587c23.467 0 42.667 19.2 42.667 42.667s-19.2 42.667-42.667 42.667z" />
<glyph unicode="&#xe912;" glyph-name="arrow-left-circle" d="M853.333 448c0-188.16-153.173-341.333-341.333-341.333-188.159 0-341.332 153.173-341.332 341.333s153.173 341.334 341.332 341.334c188.16 0 341.333-153.173 341.333-341.334zM938.667 448c0 235.521-191.147 426.668-426.667 426.668s-426.665-191.147-426.665-426.668 191.147-426.667 426.665-426.667c235.52 0 426.667 191.147 426.667 426.667zM512 405.333h128c23.467 0 42.667 19.2 42.667 42.667s-19.2 42.667-42.667 42.667h-128v76.374c0 19.2-23.040 28.587-36.267 14.933l-119.039-119.041c-8.533-8.533-8.533-21.76 0-30.293l119.039-119.040c2.982-2.923 6.758-4.907 10.854-5.705 4.1-0.802 8.346-0.38 12.207 1.212s7.168 4.279 9.519 7.731c2.347 3.452 3.631 7.522 3.686 11.695v76.8z" />
<glyph unicode="&#xe913;" glyph-name="arrow-right" d="M213.333 405.333h476.587l-208.213-208.213c-16.64-16.64-16.64-43.947 0-60.587s43.52-16.64 60.16 0l281.173 281.173c3.955 3.947 7.095 8.636 9.233 13.798 2.142 5.163 3.243 10.692 3.243 16.282s-1.101 11.123-3.243 16.282c-2.138 5.163-5.278 9.852-9.233 13.798l-280.747 281.6c-3.951 3.95-8.64 7.084-13.803 9.221-5.158 2.138-10.692 3.238-16.277 3.238s-11.119-1.1-16.277-3.238c-5.163-2.138-9.852-5.271-13.803-9.221s-7.083-8.64-9.22-13.801c-2.138-5.161-3.238-10.693-3.238-16.279s1.101-11.118 3.238-16.279c2.138-5.161 5.269-9.85 9.22-13.801l207.787-208.64h-476.587c-23.467 0-42.667-19.2-42.667-42.667s19.2-42.667 42.667-42.667z" />
<glyph unicode="&#xe914;" glyph-name="arrow-right-circle" d="M170.667 448c0 188.16 153.173 341.333 341.333 341.333s341.333-153.173 341.333-341.333c0-188.16-153.173-341.333-341.333-341.333s-341.333 153.173-341.333 341.333zM85.333 448c0-235.52 191.147-426.667 426.667-426.667s426.667 191.147 426.667 426.667c0 235.52-191.147 426.667-426.667 426.667s-426.667-191.147-426.667-426.667zM512 490.667h-128c-23.467 0-42.667-19.2-42.667-42.667s19.2-42.667 42.667-42.667h128v-76.373c0-19.2 23.040-28.587 36.267-14.933l119.040 119.040c8.533 8.533 8.533 21.76 0 30.293l-119.040 119.040c-2.982 2.924-6.754 4.908-10.854 5.706s-8.341 0.377-12.203-1.213c-3.861-1.59-7.172-4.279-9.519-7.732-2.351-3.453-3.631-7.52-3.691-11.695v-76.8z" />
<glyph unicode="&#xe915;" glyph-name="arrow-up" d="M554.667 149.333v476.587l208.213-208.213c16.64-16.64 43.947-16.64 60.587 0 3.955 3.947 7.091 8.636 9.233 13.798 2.142 5.158 3.243 10.692 3.243 16.282s-1.101 11.119-3.243 16.282c-2.142 5.163-5.278 9.852-9.233 13.798l-281.173 281.173c-3.947 3.955-8.636 7.093-13.798 9.234s-10.692 3.243-16.282 3.243c-5.589 0-11.123-1.102-16.282-3.243-5.163-2.141-9.852-5.279-13.798-9.234l-281.6-280.747c-3.95-3.951-7.084-8.64-9.221-13.803-2.138-5.158-3.238-10.692-3.238-16.277s1.1-11.119 3.238-16.277c2.138-5.163 5.271-9.852 9.221-13.803s8.64-7.083 13.801-9.22c5.161-2.138 10.693-3.238 16.279-3.238s11.118 1.101 16.279 3.238c5.161 2.138 9.85 5.269 13.801 9.22l208.64 207.787v-476.587c0-23.467 19.2-42.667 42.667-42.667s42.667 19.2 42.667 42.667z" />
<glyph unicode="&#xe916;" glyph-name="arrow-up-circle" d="M512 106.667c-188.16 0-341.333 153.173-341.333 341.333s153.173 341.333 341.333 341.333c188.16 0 341.333-153.173 341.333-341.333s-153.173-341.333-341.333-341.333zM512 21.333c235.52 0 426.667 191.147 426.667 426.667s-191.147 426.667-426.667 426.667c-235.52 0-426.667-191.147-426.667-426.667s191.147-426.667 426.667-426.667zM469.333 448v-128c0-23.467 19.2-42.667 42.667-42.667s42.667 19.2 42.667 42.667v128h76.373c19.2 0 28.587 23.040 14.933 36.267l-119.040 119.040c-8.533 8.533-21.76 8.533-30.293 0l-119.040-119.040c-2.948-3.008-4.94-6.822-5.725-10.961-0.785-4.134-0.327-8.414 1.315-12.292s4.397-7.185 7.915-9.502c3.518-2.313 7.643-3.537 11.855-3.511h76.373z" />
<glyph unicode="&#xe917;" glyph-name="arrow-up-left" d="M401.673 618.667l353.83-353.83c16.661-16.661 16.661-43.678 0-60.339s-43.678-16.661-60.339 0l-353.83 353.83v-323.66c0-23.565-19.103-42.667-42.667-42.667s-42.667 19.102-42.667 42.667v426.667c0 5.785 1.152 11.302 3.238 16.332 2.082 5.033 5.169 9.747 9.259 13.838 8.332 8.331 19.251 12.497 30.17 12.497h426.667c23.565 0 42.667-19.103 42.667-42.667s-19.102-42.667-42.667-42.667h-323.66z" />
<glyph unicode="&#xe918;" glyph-name="arrow-up-right" d="M682.667 558.327l-353.83-353.83c-16.663-16.661-43.677-16.661-60.34 0s-16.662 43.678 0 60.339l353.831 353.83h-323.661c-23.564 0-42.667 19.103-42.667 42.667s19.103 42.667 42.667 42.667h426.667c5.786 0 11.302-1.152 16.333-3.238 4.996-2.067 9.677-5.123 13.747-9.169 0.090-0.091 0.183-0.182 0.273-0.274 7.612-7.706 12.314-18.297 12.314-29.986v-426.667c0-23.565-19.102-42.667-42.667-42.667s-42.667 19.102-42.667 42.667v323.66z" />
<glyph unicode="&#xe919;" glyph-name="at-sign" d="M542.72 873.387c-61.035 4.443-122.314-4.308-179.667-25.658s-109.436-54.799-152.71-98.072c-43.273-43.273-76.722-95.357-98.072-152.71s-30.101-118.632-25.658-179.667c15.36-225.707 212.48-395.947 438.613-395.947h157.44c23.467 0 42.667 19.2 42.667 42.667s-19.2 42.667-42.667 42.667h-156.587c-159.147 0-305.067 103.253-344.747 257.28-63.573 247.467 166.827 478.293 414.293 414.293 154.453-39.253 257.707-185.173 257.707-344.32v-46.933c0-33.707-30.293-66.987-64-66.987s-64 33.28-64 66.987v53.333c0 107.093-75.947 203.52-181.76 218.453-33.664 5.006-68.041 1.897-100.262-9.068s-61.357-29.468-84.982-53.969c-23.625-24.501-41.055-54.292-50.839-86.89-9.784-32.602-11.639-67.068-5.41-100.527 7.483-40.32 26.437-77.623 54.589-107.439 28.152-29.82 64.308-50.884 104.131-60.668 78.507-18.347 153.173 6.827 202.24 56.747 37.973-52.053 113.92-79.36 183.467-51.627 57.173 22.613 92.16 81.067 92.16 142.507v46.507c0 226.56-170.24 423.68-395.947 439.040v0zM512 320c-70.827 0-128 57.173-128 128s57.173 128 128 128c70.827 0 128-57.173 128-128s-57.173-128-128-128z" />
<glyph unicode="&#xe91a;" glyph-name="award" d="M853.333 619.376c0-110.704-51.2-208.633-136.533-268.242l46.933-361.911c4.267-17.033-4.267-34.061-17.067-42.577-4.267-4.258-12.8-8.516-21.333-8.516s-17.067 0-21.333 4.258l-192 114.961-192-114.961c-17.067-8.516-34.133-8.516-46.933 0s-21.333 25.545-17.067 42.577l46.933 366.17c-81.067 59.61-132.267 157.538-132.267 268.242 0 187.343 153.6 340.624 341.333 340.624s341.333-153.281 341.333-340.624zM669.867 61.606l-29.867 242.692c-38.4-17.033-81.067-25.545-128-25.545s-89.6 8.512-128 25.545l-29.867-242.692 136.533 80.896c12.8 8.516 29.867 8.516 42.667 0l136.533-80.896zM512 874.844c-140.8 0-256-114.961-256-255.468s115.2-255.468 256-255.468c140.8 0 256 114.961 256 255.468s-115.2 255.468-256 255.468z" />
<glyph unicode="&#xe91b;" glyph-name="bar-chart" d="M256 533.333h128v-362.667c0-35.413-28.587-64-64-64s-64 28.587-64 64v362.667zM320 746.667c35.413 0 64-28.587 64-64v-106.667h-128v106.667c0 35.413 28.587 64 64 64zM682.667 277.333h128v-106.667c0-35.413-28.587-64-64-64s-64 28.587-64 64v106.667zM469.333 405.333h128v-234.667c0-35.413-28.587-64-64-64s-64 28.587-64 64v234.667zM533.333 576c35.413 0 64-28.587 64-64v-64h-128v64c0 35.413 28.587 64 64 64zM810.667 320h-128v21.333c0 35.413 28.587 64 64 64s64-28.587 64-64v-21.333z" />
<glyph unicode="&#xe91c;" glyph-name="bar-chart-2" d="M273.067 567.467h8.533c32.853 0 59.733-26.88 59.733-59.733v-298.667c0-32.853-26.88-59.733-59.733-59.733h-8.533c-32.853 0-59.733 26.88-59.733 59.733v298.667c0 32.853 26.88 59.733 59.733 59.733v0zM512 746.667c32.853 0 59.733-26.88 59.733-59.733v-477.867c0-32.853-26.88-59.733-59.733-59.733s-59.733 26.88-59.733 59.733v477.867c0 32.853 26.88 59.733 59.733 59.733zM750.933 405.333c32.853 0 59.733-26.88 59.733-59.733v-136.533c0-32.853-26.88-59.733-59.733-59.733s-59.733 26.88-59.733 59.733v136.533c0 32.853 26.88 59.733 59.733 59.733v0z" />
<glyph unicode="&#xe91d;" glyph-name="battery" d="M668.587 789.333h-71.253v42.667c0 23.467-19.2 42.667-42.667 42.667h-85.333c-23.467 0-42.667-19.2-42.667-42.667v-42.667h-71.253c-31.147 0-56.747-25.6-56.747-56.747v-654.080c0-31.573 25.6-57.173 57.173-57.173h312.32c31.573 0 57.173 25.6 57.173 56.747v654.507c0 31.147-25.6 56.747-56.747 56.747z" />
<glyph unicode="&#xe91e;" glyph-name="battery-charging" d="M668.587 789.333h-71.253v42.667c0 23.467-19.2 42.667-42.667 42.667h-85.333c-23.467 0-42.667-19.2-42.667-42.667v-42.667h-71.253c-31.147 0-56.747-25.6-56.747-56.747v-654.080c0-31.573 25.6-57.173 57.173-57.173h312.32c31.573 0 57.173 25.6 57.173 56.747v654.507c0 31.147-25.6 56.747-56.747 56.747zM623.36 395.093l-113.92-213.333c-10.24-19.2-40.107-11.947-40.107 10.24v149.333h-49.92c-3.708-0.009-7.355 0.947-10.581 2.778-3.226 1.826-5.919 4.467-7.814 7.654s-2.927 6.814-2.993 10.522c-0.066 3.708 0.835 7.369 2.615 10.62l113.92 213.333c10.24 19.2 40.107 11.947 40.107-10.24v-149.333h49.92c15.787 0 26.453-17.067 18.773-31.573v0z" />
<glyph unicode="&#xe91f;" glyph-name="bell" d="M823.040 222.293l-55.040 55.040v213.333c0 130.987-69.973 240.64-192 269.653v29.013c0 35.413-28.587 64-64 64s-64-28.587-64-64v-29.013c-122.453-29.013-192-138.24-192-269.653v-213.333l-55.040-55.040c-26.88-26.88-8.107-72.96 29.867-72.96h561.92c38.4 0 57.173 46.080 30.293 72.96zM682.667 234.667h-341.333v256c0 105.813 64.427 192 170.667 192s170.667-86.187 170.667-192v-256zM512 21.333c46.933 0 85.333 38.4 85.333 85.333h-170.667c0-22.63 8.99-44.335 24.994-60.339s37.709-24.994 60.339-24.994z" />
<glyph unicode="&#xe920;" glyph-name="bell-off" d="M512 21.333c46.933 0 85.333 38.4 85.333 85.333h-170.667c0-46.933 38.4-85.333 85.333-85.333zM512 682.667c106.24 0 170.667-86.187 170.667-192v-4.267l85.333-85.333v89.6c0 130.987-69.547 240.64-192 269.653v29.013c0 35.413-28.587 64-64 64s-64-28.587-64-64v-29.013c-10.24-2.56-20.053-6.4-29.44-9.813l69.973-69.973c7.68 0.853 15.36 2.133 23.467 2.133zM230.827 817.067l-60.16-60.16 119.893-119.893c-22.187-42.667-34.56-92.587-34.56-146.347v-213.333l-85.333-85.333v-42.667h607.573l74.24-74.24 60.16 60.16-681.813 681.813zM682.667 234.667h-341.333v256c0 29.013 5.12 56.32 14.507 81.067l326.827-326.827v-10.24z" />
<glyph unicode="&#xe921;" glyph-name="bluetooth" d="M755.627 631.040l-243.627 243.627h-42.667v-323.84l-195.84 195.84-60.16-60.16 238.507-238.507-238.507-238.507 60.16-60.16 195.84 195.84v-323.84h42.667l243.627 243.627-183.467 183.040 183.467 183.040zM554.667 711.253l80.213-80.213-80.213-80.213v160.427zM634.88 264.96l-80.213-80.213v160.427l80.213-80.213z" />
<glyph unicode="&#xe922;" glyph-name="bold" d="M665.6 499.627c41.387 28.587 70.4 75.52 70.4 119.040 0 96.427-74.667 170.667-170.667 170.667h-266.667v-597.333h300.373c89.173 0 158.293 72.533 158.293 161.707 0 64.853-36.693 120.32-91.733 145.92v0zM426.667 682.667h128c35.413 0 64-28.587 64-64s-28.587-64-64-64h-128v128zM576 298.667h-149.333v128h149.333c35.413 0 64-28.587 64-64s-28.587-64-64-64z" />
<glyph unicode="&#xe923;" glyph-name="book" d="M853.333 917.333c25.6 0 42.667-17.067 42.667-42.667v-853.333c0-25.6-17.067-42.667-42.667-42.667h-576c-81.067 0-149.333 68.267-149.333 149.333v640c0 81.067 68.267 149.333 149.333 149.333h576zM277.333 64h533.333v128h-533.333c-34.133 0-64-29.867-64-64s29.867-64 64-64zM810.667 832h-533.333c-34.133 0-64-29.867-64-64v-507.733c21.333 12.8 42.667 17.067 64 17.067h533.333v554.667z" />
<glyph unicode="&#xe924;" glyph-name="bookmark" d="M298.667 874.667h426.667c72.533 0 128-55.467 123.733-128v-682.667c0-17.067-8.533-29.867-21.333-38.4-8.533-4.267-12.8-4.267-21.333-4.267s-17.067 4.267-25.6 8.533l-273.067 196.267-273.067-196.267c-12.8-8.533-29.867-12.8-42.667-4.267s-21.333 21.333-21.333 38.4v682.667c0 72.533 55.467 128 128 128zM537.6 311.467l230.4-166.4v601.6c0 25.6-17.067 42.667-42.667 42.667h-426.667c-25.6 0-42.667-17.067-42.667-42.667v-601.6l230.4 166.4c8.533 4.267 17.067 8.533 25.6 8.533s17.067-4.267 25.6-8.533z" />
<glyph unicode="&#xe925;" glyph-name="book-open" d="M746.667 768c-83.2 0-172.8-17.067-234.667-64-61.867 46.933-151.467 64-234.667 64-61.867 0-127.573-9.387-182.613-33.707-31.147-14.080-52.053-44.373-52.053-78.933v-481.28c0-55.467 52.053-96.427 105.813-82.773 41.813 10.667 86.187 15.36 128.853 15.36 66.56 0 137.387-11.093 194.56-39.253 25.6-12.8 54.613-12.8 79.787 0 57.173 28.587 128 39.253 194.56 39.253 42.667 0 87.040-4.693 128.853-15.36 53.76-14.080 105.813 26.88 105.813 82.773v481.28c0 34.56-20.907 64.853-52.053 78.933-54.613 24.32-120.32 33.707-182.187 33.707v0zM896 224.853c0-26.88-24.747-46.507-51.2-41.813-32 5.973-65.28 8.533-98.133 8.533-72.533 0-177.067-27.733-234.667-64v491.093c57.6 36.267 162.133 64 234.667 64 39.253 0 78.080-3.84 115.2-11.947 19.627-4.267 34.133-21.76 34.133-41.813v-404.053zM596.48 490.24c-13.653 0-26.027 8.533-30.293 22.187-5.547 16.64 3.84 34.986 20.48 40.106 65.707 21.333 150.613 28.16 228.693 19.2 17.493-2.133 30.293-17.92 28.16-35.413s-17.92-30.293-35.413-28.16c-69.12 8.107-144.64 1.707-201.813-16.64-3.413-0.427-6.827-1.28-9.813-1.28v0zM596.48 376.747c-13.653 0-26.027 8.533-30.293 22.187-5.547 16.64 3.84 34.987 20.48 40.107 65.28 21.333 150.613 28.16 228.693 19.2 17.493-2.133 30.293-17.92 28.16-35.413s-17.92-30.293-35.413-28.16c-69.12 8.107-144.64 1.707-201.813-16.64-3.209-0.819-6.502-1.246-9.813-1.28v0zM596.48 263.253c-13.653 0-26.027 8.533-30.293 22.187-5.547 16.64 3.84 34.987 20.48 40.107 65.28 21.333 150.613 28.16 228.693 19.2 17.493-2.133 30.293-17.92 28.16-35.413s-17.92-29.867-35.413-28.16c-69.12 8.107-144.64 1.707-201.813-16.64-3.209-0.819-6.502-1.246-9.813-1.28v0z" />
<glyph unicode="&#xe926;" glyph-name="box" d="M567.467 934.4l341.333-170.667c46.933-21.333 72.533-64 72.533-110.933v-405.333c0-51.2-29.867-93.867-72.533-115.2l-341.333-170.667c-17.067-8.533-34.133-12.8-55.467-12.8-17.067 0-38.4 4.267-55.467 12.8l-341.333 170.667c-46.933 21.333-72.533 68.267-72.533 115.2v405.333c0 46.933 25.6 89.6 68.267 110.933l341.333 170.667c38.4 17.067 81.067 17.067 115.2 0zM512 866.133c-4.267 0-12.8 0-17.067-4.267l-315.733-157.867 332.8-166.4 332.8 166.4-315.733 157.867c-4.267 4.267-8.533 4.267-17.067 4.267zM870.4 204.8c17.067 8.533 25.6 21.333 25.6 38.4v392.533l-341.333-170.667v-418.133l315.733 157.867zM128 243.2c0-12.8 8.533-29.867 21.333-38.4l320-157.867v418.133l-341.333 170.667v-392.533z" />
<glyph unicode="&#xe927;" glyph-name="briefcase" d="M853.333 704h-128v42.667c0 72.533-55.467 128-128 128h-170.667c-72.533 0-128-55.467-128-128v-42.667h-128c-72.533 0-128-55.467-128-128v-426.667c0-72.533 55.467-128 128-128h682.667c72.533 0 128 55.467 128 128v426.667c0 72.533-55.467 128-128 128zM896 149.333c0-25.6-17.067-42.667-42.667-42.667h-128v512h128c25.6 0 42.667-17.067 42.667-42.667v-426.667zM640 106.667h-256v512h256v-512zM128 149.333v426.667c0 25.6 17.067 42.667 42.667 42.667h128v-512h-128c-25.6 0-42.667 17.067-42.667 42.667zM426.667 789.333h170.667c25.6 0 42.667-17.067 42.667-42.667v-42.667h-256v42.667c0 25.6 17.067 42.667 42.667 42.667z" />
<glyph unicode="&#xe928;" glyph-name="cake" d="M512 704c22.63 0 44.335 8.99 60.339 24.994s24.994 37.708 24.994 60.34c0 16.213-4.267 31.147-12.373 43.947l-72.96 126.72-72.96-126.72c-8.107-12.8-12.373-27.733-12.373-43.947 0-46.933 38.4-85.333 85.333-85.333zM768 576h-213.333v85.333h-85.333v-85.333h-213.333c-70.827 0-128-57.173-128-128v-384c0-23.467 19.2-42.667 42.667-42.667h682.667c23.467 0 42.667 19.2 42.667 42.667v384c0 70.827-57.173 128-128 128zM810.667 106.667h-597.333v128c38.4 0.427 75.093 15.787 102.4 43.093l46.507 45.653 45.653-45.653c55.893-55.893 153.173-55.467 208.64 0l46.080 45.653 45.653-45.653c27.307-27.307 64-42.667 102.4-43.093v-128zM810.667 298.667c-21.76 0.427-42.24 8.533-57.6 24.32l-90.88 90.88-91.307-90.88c-31.573-31.573-86.613-31.573-118.187 0l-90.88 90.88-91.307-90.88c-14.933-15.36-35.413-23.893-57.173-24.32v149.333c0 23.467 19.2 42.667 42.667 42.667h512c23.467 0 42.667-19.2 42.667-42.667v-149.333z" />
<glyph unicode="&#xe929;" glyph-name="calculate" d="M810.667 832h-597.333c-46.933 0-85.333-38.4-85.333-85.333v-597.333c0-46.933 38.4-85.333 85.333-85.333h597.333c46.933 0 85.333 38.4 85.333 85.333v597.333c0 46.933-38.4 85.333-85.333 85.333zM810.667 149.333h-597.333v597.333h597.333v-597.333zM266.667 630.613h213.333v-64h-213.333v64zM554.667 288h213.333v-64h-213.333v64zM554.667 394.667h213.333v-64h-213.333v64zM341.333 192h64v85.333h85.333v64h-85.333v85.333h-64v-85.333h-85.333v-64h85.333v-85.333zM601.173 492.8l60.16 60.16 60.16-60.16 45.227 45.227-60.16 60.587 60.16 60.16-45.227 45.227-60.16-60.16-60.16 60.16-45.227-45.227 60.16-60.16-60.16-60.587 45.227-45.227z" />
<glyph unicode="&#xe92a;" glyph-name="calendar" d="M853.333 832h-42.667v85.333h-85.333v-85.333h-426.667v85.333h-85.333v-85.333h-42.667c-46.933 0-85.333-38.4-85.333-85.333v-682.667c0-46.933 38.4-85.333 85.333-85.333h682.667c46.933 0 85.333 38.4 85.333 85.333v682.667c0 46.933-38.4 85.333-85.333 85.333zM853.333 64h-682.667v469.333h682.667v-469.333zM853.333 618.667h-682.667v128h682.667v-128z" />
<glyph unicode="&#xe92b;" glyph-name="camera" d="M896 746.667h-149.333l-72.533 110.933c-8.533 8.533-21.333 17.067-34.133 17.067h-256c-12.8 0-25.6-8.533-34.133-17.067l-72.533-110.933h-149.333c-72.533 0-128-55.467-128-128v-469.333c0-72.533 55.467-128 128-128h768c72.533 0 128 55.467 128 128v469.333c0 72.533-55.467 128-128 128zM938.667 149.333c0-25.6-17.067-42.667-42.667-42.667h-768c-25.6 0-42.667 17.067-42.667 42.667v469.333c0 25.6 17.067 42.667 42.667 42.667h170.667c12.8 0 25.6 8.533 34.133 17.067l72.533 110.933h209.067l72.533-110.933c12.8-8.533 25.6-17.067 38.4-17.067h170.667c25.6 0 42.667-17.067 42.667-42.667v-469.333zM512 618.667c-119.467 0-213.333-93.867-213.333-213.333s93.867-213.333 213.333-213.333c119.467 0 213.333 93.867 213.333 213.333s-93.867 213.333-213.333 213.333zM512 277.333c-72.533 0-128 55.467-128 128s55.467 128 128 128c72.533 0 128-55.467 128-128s-55.467-128-128-128z" />
<glyph unicode="&#xe92c;" glyph-name="camera-off" d="M285.867 733.867l-213.333 213.333c-17.067 17.067-42.667 17.067-59.733 0s-17.067-42.667 0-59.733l140.8-140.8h-25.6c-72.533 0-128-55.467-128-128v-469.333c0-72.533 55.467-128 128-128h750.933l72.533-72.533c8.533-8.533 21.333-12.8 29.867-12.8s21.333 4.267 29.867 12.8c17.067 17.067 17.067 42.667 0 59.733l-725.333 725.333zM413.867 486.4l179.2-179.2c-17.067-12.8-38.4-25.6-59.733-29.867-34.133-8.533-68.267 0-93.867 21.333-29.867 21.333-46.933 46.933-55.467 81.067-4.267 34.133 4.267 68.267 21.333 98.133l8.533 8.533zM128 106.667c-25.6 0-42.667 17.067-42.667 42.667v469.333c0 25.6 17.067 42.667 42.667 42.667h110.933l115.2-115.2c-8.533-8.533-12.8-12.8-17.067-21.333-34.133-46.933-42.667-102.4-34.133-157.867s42.667-106.667 89.6-136.533c34.133-25.6 76.8-38.4 119.467-38.4 12.8 0 25.6 0 38.4 4.267 38.4 8.533 72.533 25.6 102.4 51.2l140.8-140.8h-665.6zM1024 221.867c0-25.6-17.067-42.667-42.667-42.667s-42.667 17.067-42.667 42.667v396.8c0 25.6-17.067 42.667-42.667 42.667h-170.667c-12.8 0-25.6 8.533-34.133 17.067l-72.533 110.933h-234.667c-25.6 0-42.667 17.067-42.667 42.667s17.067 42.667 42.667 42.667h256c12.8 0 25.6-8.533 34.133-17.067l72.533-110.933h149.333c72.533 0 128-55.467 128-128v-396.8z" />
<glyph unicode="&#xe92d;" glyph-name="cast" d="M896 832h-768c-46.933 0-85.333-38.4-85.333-85.333v-85.333c0-23.467 19.2-42.667 42.667-42.667s42.667 19.2 42.667 42.667v42.667c0 23.467 19.2 42.667 42.667 42.667h682.667c23.467 0 42.667-19.2 42.667-42.667v-512c0-23.467-19.2-42.667-42.667-42.667h-213.333c-23.467 0-42.667-19.2-42.667-42.667s19.2-42.667 42.667-42.667h256c46.933 0 85.333 38.4 85.333 85.333v597.333c0 46.933-38.4 85.333-85.333 85.333zM91.307 358.827c-25.6 4.267-48.64-16.64-48.64-42.667 0-20.907 15.36-38.4 36.267-41.813 88.747-15.36 158.72-85.333 174.080-174.080 3.413-20.907 20.907-36.267 41.813-36.267 26.027 0 46.507 23.040 42.667 48.64-10.126 61.632-39.326 118.532-83.49 162.697s-101.066 73.365-162.697 83.49v0zM42.667 192v-128h128c0 70.827-57.173 128-128 128zM89.6 531.2c-25.173 2.133-46.933-17.493-46.933-42.667 0-21.76 16.213-40.107 37.547-42.24 182.187-17.493 327.253-162.56 344.747-344.747 2.133-21.333 20.48-37.12 42.24-37.12 25.6 0 45.227 22.187 42.667 47.36-22.613 221.44-198.827 397.227-420.267 419.413v0z" />
<glyph unicode="&#xe92e;" glyph-name="chart-outlined" d="M341.333 234.667c-23.467 0-42.667 19.2-42.667 42.667v213.333c0 23.467 19.2 42.667 42.667 42.667s42.667-19.2 42.667-42.667v-213.333c0-23.467-19.2-42.667-42.667-42.667zM512 234.667c-23.467 0-42.667 19.2-42.667 42.667v341.333c0 23.467 19.2 42.667 42.667 42.667s42.667-19.2 42.667-42.667v-341.333c0-23.467-19.2-42.667-42.667-42.667zM682.667 234.667c-23.467 0-42.667 19.2-42.667 42.667v85.333c0 23.467 19.2 42.667 42.667 42.667s42.667-19.2 42.667-42.667v-85.333c0-23.467-19.2-42.667-42.667-42.667zM768 149.333h-512c-23.467 0-42.667 19.2-42.667 42.667v512c0 23.467 19.2 42.667 42.667 42.667h512c23.467 0 42.667-19.2 42.667-42.667v-512c0-23.467-19.2-42.667-42.667-42.667zM810.667 832h-597.333c-46.933 0-85.333-38.4-85.333-85.333v-597.333c0-46.933 38.4-85.333 85.333-85.333h597.333c46.933 0 85.333 38.4 85.333 85.333v597.333c0 46.933-38.4 85.333-85.333 85.333z" />
<glyph unicode="&#xe92f;" glyph-name="check" d="M384 270.080l-148.053 148.053c-7.978 7.979-18.798 12.459-30.080 12.459s-22.102-4.48-30.080-12.459c-7.978-7.979-12.46-18.799-12.46-30.080 0-5.585 1.1-11.119 3.238-16.277 2.138-5.163 5.271-9.852 9.222-13.803l178.347-178.347c16.64-16.64 43.52-16.64 60.16 0l451.413 451.413c7.979 7.978 12.459 18.798 12.459 30.080s-4.48 22.102-12.459 30.080c-7.979 7.978-18.799 12.46-30.080 12.46s-22.101-4.482-30.080-12.46l-421.547-421.12z" />
<glyph unicode="&#xe930;" glyph-name="check-circle" d="M512 874.667c-235.52 0-426.667-191.147-426.667-426.667s191.147-426.667 426.667-426.667c235.52 0 426.667 191.147 426.667 426.667s-191.147 426.667-426.667 426.667zM512 106.667c-188.16 0-341.333 153.173-341.333 341.333s153.173 341.333 341.333 341.333c188.16 0 341.333-153.173 341.333-341.333s-153.173-341.333-341.333-341.333zM677.547 606.293l-250.88-250.88-80.213 80.213c-7.978 7.979-18.798 12.459-30.080 12.459s-22.102-4.48-30.080-12.459c-7.978-7.979-12.46-18.799-12.46-30.080s4.482-22.101 12.46-30.080l110.507-110.507c16.64-16.64 43.52-16.64 60.16 0l281.173 281.173c3.955 3.947 7.095 8.636 9.233 13.798 2.142 5.161 3.243 10.694 3.243 16.282s-1.101 11.121-3.243 16.282c-2.138 5.162-5.278 9.85-9.233 13.798-16.64 16.64-43.947 16.64-60.587 0v0z" />
<glyph unicode="&#xe931;" glyph-name="check-square" d="M810.667 832h-597.333c-46.933 0-85.333-38.4-85.333-85.333v-597.333c0-46.933 38.4-85.333 85.333-85.333h597.333c46.933 0 85.333 38.4 85.333 85.333v597.333c0 46.933-38.4 85.333-85.333 85.333zM810.667 149.333h-597.333v597.333h597.333v-597.333zM767.573 576l-60.16 60.587-281.173-281.173-110.080 109.653-60.587-60.16 170.667-170.24 341.333 341.333z" />
<glyph unicode="&#xe932;" glyph-name="chevron-down" d="M346.453 563.626l165.547-165.546 165.547 165.546c3.951 3.951 8.64 7.084 13.803 9.222 5.158 2.138 10.692 3.238 16.277 3.238s11.119-1.1 16.277-3.238c5.163-2.138 9.852-5.271 13.803-9.222s7.083-8.64 9.22-13.801c2.138-5.161 3.238-10.693 3.238-16.279 0-5.585-1.101-11.119-3.238-16.277-2.138-5.163-5.269-9.852-9.22-13.803l-195.84-195.84c-3.947-3.955-8.636-7.095-13.798-9.233-5.163-2.142-10.692-3.247-16.282-3.247s-11.123 1.105-16.282 3.247c-5.163 2.138-9.852 5.278-13.798 9.233l-195.84 195.84c-3.956 3.947-7.093 8.636-9.234 13.798-2.141 5.158-3.244 10.692-3.244 16.281s1.102 11.121 3.244 16.283c2.141 5.161 5.279 9.85 9.234 13.797 16.64 16.213 43.947 16.64 60.587 0v0z" />
<glyph unicode="&#xe933;" glyph-name="chevron-left" d="M627.627 282.453l-165.547 165.547 165.547 165.547c3.951 3.95 7.083 8.64 9.22 13.801s3.238 10.693 3.238 16.279c0 5.586-1.101 11.118-3.238 16.279s-5.269 9.85-9.22 13.801c-3.951 3.95-8.64 7.084-13.803 9.221-5.158 2.138-10.692 3.238-16.277 3.238s-11.119-1.1-16.277-3.238c-5.163-2.138-9.852-5.271-13.803-9.221l-195.84-195.84c-3.955-3.947-7.093-8.636-9.234-13.798s-3.243-10.692-3.243-16.282c0-5.589 1.102-11.123 3.243-16.282 2.141-5.163 5.279-9.852 9.234-13.798l195.84-195.84c16.64-16.64 43.52-16.64 60.16 0 16.213 16.64 16.64 43.947 0 60.587z" />
<glyph unicode="&#xe934;" glyph-name="chevron-right" d="M396.373 282.453l165.547 165.547-165.547 165.547c-3.95 3.95-7.084 8.64-9.222 13.801s-3.238 10.693-3.238 16.279c0 5.586 1.1 11.118 3.238 16.279s5.271 9.85 9.222 13.801c3.95 3.95 8.64 7.084 13.801 9.221s10.693 3.238 16.279 3.238c5.585 0 11.119-1.1 16.277-3.238 5.163-2.138 9.852-5.271 13.803-9.221l195.84-195.84c16.64-16.64 16.64-43.52 0-60.16l-195.84-195.84c-3.947-3.955-8.636-7.095-13.798-9.233-5.158-2.142-10.692-3.243-16.282-3.243-5.588 0-11.121 1.101-16.282 3.243-5.162 2.138-9.85 5.278-13.798 9.233-16.213 16.64-16.64 43.947 0 60.587z" />
<glyph unicode="&#xe935;" glyph-name="chevrons-down" d="M737.707 435.2c-3.947 3.955-8.636 7.091-13.798 9.233s-10.692 3.243-16.282 3.243c-5.589 0-11.123-1.101-16.282-3.243-5.163-2.142-9.852-5.278-13.798-9.233l-165.547-165.12-165.547 165.547c-7.978 7.979-18.798 12.459-30.080 12.459s-22.103-4.48-30.080-12.459c-7.978-7.979-12.46-18.799-12.46-30.080s4.482-22.101 12.46-30.080l195.84-195.84c16.64-16.64 43.52-16.64 60.16 0l195.84 195.84c7.834 7.996 12.186 18.761 12.105 29.956-0.081 11.191-4.587 21.897-12.531 29.777v0zM737.707 716.374c-3.947 3.955-8.636 7.093-13.798 9.234-5.158 2.141-10.692 3.243-16.282 3.243s-11.119-1.102-16.282-3.243c-5.163-2.141-9.852-5.279-13.798-9.234l-165.547-165.12-165.973 165.547c-3.95 3.95-8.64 7.084-13.801 9.221s-10.693 3.238-16.279 3.238c-5.586 0-11.118-1.1-16.279-3.238s-9.851-5.271-13.801-9.221c-3.95-3.951-7.084-8.64-9.221-13.801s-3.238-10.693-3.238-16.279c0-5.587 1.1-11.118 3.238-16.279s5.271-9.85 9.221-13.801l195.84-195.84c16.64-16.64 43.52-16.64 60.16 0l195.84 195.84c3.951 3.905 7.091 8.556 9.233 13.682s3.243 10.628 3.243 16.184c0 5.556-1.101 11.057-3.243 16.184s-5.282 9.777-9.233 13.683z" />
<glyph unicode="&#xe936;" glyph-name="chevrons-left" d="M780.373 222.293c3.955 3.947 7.091 8.636 9.233 13.798 2.142 5.158 3.243 10.692 3.243 16.282s-1.101 11.119-3.243 16.282c-2.142 5.163-5.278 9.852-9.233 13.798l-165.12 165.547 165.547 165.547c3.951 3.95 7.083 8.64 9.22 13.801s3.238 10.693 3.238 16.279c0 5.586-1.101 11.118-3.238 16.279s-5.269 9.85-9.22 13.801c-3.951 3.95-8.64 7.084-13.803 9.221-5.158 2.138-10.692 3.238-16.277 3.238s-11.119-1.1-16.277-3.238c-5.163-2.138-9.852-5.271-13.803-9.221l-195.84-195.84c-3.955-3.947-7.095-8.636-9.233-13.798-2.142-5.163-3.243-10.692-3.243-16.282s1.101-11.123 3.243-16.282c2.138-5.163 5.278-9.852 9.233-13.798l195.84-195.84c16.213-16.213 43.093-16.213 59.733 0.427zM499.2 222.293c3.955 3.947 7.095 8.636 9.233 13.798 2.142 5.158 3.243 10.692 3.243 16.282s-1.101 11.119-3.243 16.282c-2.138 5.163-5.278 9.852-9.233 13.798l-165.12 165.547 165.547 165.547c7.979 7.977 12.459 18.798 12.459 30.080s-4.48 22.102-12.459 30.080c-7.979 7.977-18.799 12.46-30.080 12.46s-22.101-4.482-30.080-12.46l-195.84-195.84c-3.955-3.947-7.093-8.636-9.234-13.798s-3.243-10.692-3.243-16.282c0-5.589 1.102-11.123 3.243-16.282 2.141-5.163 5.279-9.852 9.234-13.798l195.84-195.84c16.213-16.213 43.093-16.213 59.733 0.427v0z" />
<glyph unicode="&#xe937;" glyph-name="chevrons-right" d="M243.2 673.707c-3.956-3.947-7.094-8.636-9.235-13.797s-3.243-10.695-3.243-16.283c0-5.588 1.102-11.121 3.243-16.282s5.279-9.85 9.235-13.798l165.547-165.547-165.547-165.547c-3.951-3.951-7.084-8.64-9.222-13.803-2.138-5.158-3.238-10.692-3.238-16.277s1.1-11.119 3.238-16.277c2.138-5.163 5.271-9.852 9.222-13.803s8.64-7.083 13.801-9.22c5.161-2.138 10.693-3.238 16.279-3.238s11.118 1.101 16.279 3.238c5.161 2.138 9.85 5.269 13.801 9.22l195.84 195.84c3.955 3.947 7.095 8.636 9.233 13.798 2.142 5.163 3.247 10.692 3.247 16.282s-1.105 11.123-3.247 16.282c-2.138 5.163-5.278 9.852-9.233 13.798l-195.413 195.413c-16.64 16.64-43.947 16.64-60.587 0zM524.373 673.706c-3.955-3.947-7.091-8.636-9.233-13.797s-3.243-10.695-3.243-16.283c0-5.588 1.101-11.121 3.243-16.282s5.278-9.85 9.233-13.798l165.547-165.546-165.547-165.547c-7.979-7.979-12.459-18.799-12.459-30.080s4.48-22.101 12.459-30.080c7.979-7.979 18.799-12.459 30.080-12.459s22.101 4.48 30.080 12.459l195.84 195.84c3.955 3.947 7.095 8.636 9.233 13.798 2.142 5.158 3.243 10.692 3.243 16.282s-1.101 11.119-3.243 16.282c-2.138 5.163-5.278 9.852-9.233 13.798l-195.84 195.84c-16.213 16.213-43.52 16.213-60.16-0.427z" />
<glyph unicode="&#xe938;" glyph-name="chevrons-up" d="M285.867 179.627c16.64-16.64 43.52-16.64 60.16 0l165.973 165.12 165.547-165.547c7.979-7.979 18.799-12.459 30.080-12.459s22.101 4.48 30.080 12.459c7.979 7.979 12.459 18.799 12.459 30.080s-4.48 22.101-12.459 30.080l-195.84 195.84c-3.947 3.955-8.636 7.095-13.798 9.233-5.158 2.142-10.692 3.243-16.282 3.243s-11.119-1.101-16.282-3.243c-5.163-2.138-9.852-5.278-13.798-9.233l-195.84-195.413c-3.956-3.947-7.094-8.636-9.235-13.798-2.141-5.158-3.243-10.692-3.243-16.282s1.102-11.119 3.243-16.282c2.141-5.163 5.279-9.852 9.235-13.798zM285.867 460.8c16.64-16.64 43.52-16.64 60.16 0l165.973 165.12 165.547-165.547c7.979-7.979 18.799-12.459 30.080-12.459s22.101 4.48 30.080 12.459c7.979 7.979 12.459 18.799 12.459 30.080s-4.48 22.101-12.459 30.080l-195.84 195.84c-3.947 3.955-8.636 7.093-13.798 9.234-5.158 2.141-10.692 3.243-16.282 3.243s-11.119-1.102-16.282-3.243c-5.163-2.141-9.852-5.279-13.798-9.234l-195.84-195.413c-3.956-3.947-7.094-8.636-9.235-13.798-2.141-5.158-3.243-10.692-3.243-16.282s1.102-11.123 3.243-16.282c2.141-5.163 5.279-9.852 9.235-13.798z" />
<glyph unicode="&#xe939;" glyph-name="chevron-up" d="M346.453 332.373l165.547 165.547 165.547-165.547c3.951-3.951 8.64-7.083 13.803-9.22 5.158-2.138 10.692-3.238 16.277-3.238s11.119 1.101 16.277 3.238c5.163 2.138 9.852 5.269 13.803 9.22s7.083 8.64 9.22 13.803c2.138 5.158 3.238 10.692 3.238 16.277s-1.101 11.119-3.238 16.277c-2.138 5.163-5.269 9.852-9.22 13.803l-195.84 195.84c-3.947 3.955-8.636 7.093-13.798 9.234s-10.692 3.243-16.282 3.243c-5.589 0-11.123-1.102-16.282-3.243-5.163-2.141-9.852-5.279-13.798-9.234l-195.84-195.84c-3.956-3.947-7.093-8.636-9.234-13.798s-3.244-10.692-3.244-16.282c0-5.589 1.102-11.123 3.244-16.282 2.141-5.163 5.279-9.852 9.234-13.798 16.64-16.213 43.947-16.64 60.587 0v0z" />
<glyph unicode="&#xe93a;" glyph-name="circle" d="M512 874.667c-235.947 0-426.667-190.72-426.667-426.667s190.72-426.667 426.667-426.667c235.947 0 426.667 190.72 426.667 426.667s-190.72 426.667-426.667 426.667zM512 106.667c-188.587 0-341.333 152.747-341.333 341.333s152.747 341.333 341.333 341.333c188.587 0 341.333-152.747 341.333-341.333s-152.747-341.333-341.333-341.333z" />
<glyph unicode="&#xe93b;" glyph-name="clock" d="M511.573 874.667c-235.52 0-426.24-191.147-426.24-426.667s190.72-426.667 426.24-426.667c235.947 0 427.093 191.147 427.093 426.667s-191.147 426.667-427.093 426.667zM512 106.667c-188.587 0-341.333 152.747-341.333 341.333s152.747 341.333 341.333 341.333c188.587 0 341.333-152.747 341.333-341.333s-152.747-341.333-341.333-341.333zM502.613 661.333h-2.56c-17.067 0-30.72-13.653-30.72-30.72v-201.387c0-14.933 7.68-29.013 20.907-36.693l177.067-106.24c14.507-8.533 33.28-4.267 41.813 10.24 2.142 3.456 3.567 7.305 4.19 11.324 0.623 4.015 0.431 8.119-0.563 12.058-0.994 3.942-2.773 7.642-5.231 10.884-2.453 3.238-5.538 5.952-9.062 7.974l-165.12 98.133v193.707c0 17.067-13.653 30.72-30.72 30.72v0z" />
<glyph unicode="&#xe93c;" glyph-name="cloud" horiz-adv-x="1067" d="M789.333 576h21.333c140.8 0 251.733-115.2 251.733-256s-115.2-256-256-256h-384c-174.933 0-328.533 119.467-371.2 290.133-25.6 98.133-8.533 200.533 42.667 290.133 55.467 85.333 136.533 149.333 238.933 179.2 98.133 25.6 200.533 8.533 290.133-42.667 76.8-46.933 136.533-119.467 166.4-204.8zM426.667 149.333h384c93.867 0 170.667 72.533 170.667 166.4s-76.8 170.667-170.667 170.667h-51.2c-21.333 0-38.4 17.067-42.667 34.133-34.133 136.533-157.867 226.133-290.133 226.133-25.6 0-51.2-4.267-72.533-8.533-76.8-17.067-140.8-64-183.467-136.533s-55.467-149.333-34.133-230.4c34.133-128 153.6-221.867 290.133-221.867z" />
<glyph unicode="&#xe93d;" glyph-name="cloud-drizzle" horiz-adv-x="1067" d="M768.448 703.997c102.4 0 192-59.733 234.667-153.6 25.6-64.002 29.867-132.268 8.533-200.535-25.6-64-72.533-115.2-136.533-140.8-4.267-4.267-12.8-4.267-17.067-4.267-17.067 0-29.867 8.533-38.4 25.6-8.533 21.333 0 46.933 21.333 55.467 42.667 17.067 72.533 51.2 89.6 93.867s12.8 89.6-4.267 132.267c-29.867 64.002-89.6 102.402-157.867 102.402h-55.467c-21.333 0-38.4 17.067-42.667 34.133-38.4 157.867-204.8 256-362.668 213.333-157.867-38.4-256-204.8-213.333-362.668 17.067-59.733 51.2-119.467 102.4-157.867 21.333-12.8 21.333-42.667 8.533-59.733-12.8-21.333-42.667-21.333-59.733-8.533-64 51.2-110.933 123.733-132.267 204.8-55.467 209.068 68.267 418.135 277.333 469.335 192.001 51.2 392.534-55.467 456.534-243.2h21.333zM640.448 405.329c0 25.6 17.067 42.667 42.667 42.667s42.667-17.067 42.667-42.667v-85.333c0-25.6-17.067-42.667-42.667-42.667s-42.667 17.067-42.667 42.667v85.333zM512.448 362.662c-25.6 0-42.667-17.067-42.667-42.667v-85.333c0-25.6 17.067-42.667 42.667-42.667s42.667 17.067 42.667 42.667v85.333c0 25.6-17.067 42.667-42.667 42.667zM384.447 63.996v85.333c0 25.6-17.067 42.667-42.667 42.667s-42.667-17.067-42.667-42.667v-85.333c0-25.6 17.067-42.667 42.667-42.667s42.667 17.067 42.667 42.667zM683.115 191.996c-25.6 0-42.667-17.067-42.667-42.667v-85.333c0-25.6 17.067-42.667 42.667-42.667s42.667 17.067 42.667 42.667v85.333c0 25.6-17.067 42.667-42.667 42.667zM512.448 106.662c-25.6 0-42.667-17.067-42.667-42.667v-85.333c0-25.6 17.067-42.667 42.667-42.667s42.667 17.067 42.667 42.667v85.333c0 25.6-17.067 42.667-42.667 42.667zM341.78 447.996c-25.6 0-42.667-17.067-42.667-42.667v-85.333c0-25.6 17.067-42.667 42.667-42.667s42.667 17.067 42.667 42.667v85.333c0 25.6-17.067 42.667-42.667 42.667z" />
<glyph unicode="&#xe93e;" glyph-name="cloud-lightning" d="M811.443 197.431h8.499c135.974 29.999 225.203 167.147 199.71 300.002-25.493 120.003-131.725 205.718-250.701 205.718h-25.498c-63.735 184.288-263.45 295.717-454.662 244.288-97.731-25.715-182.715-85.715-233.705-175.716-55.24-85.715-67.987-192.859-42.492-291.433 29.744-102.857 93.482-188.574 186.964-240 21.246-12.86 46.741-4.288 59.488 17.143 12.748 21.427 4.25 47.142-16.997 55.714-72.236 42.859-123.226 107.145-144.472 188.574s-8.498 158.572 33.993 231.43c38.243 68.572 101.981 115.715 178.466 137.144 157.222 42.858 318.69-55.715 361.181-214.288 4.25-21.429 21.244-34.286 42.492-34.286h55.241c80.734 0 148.719-55.715 165.717-137.144 21.248-90.001-38.242-184.29-131.725-201.429-25.493-4.288-38.242-30.003-33.993-51.43 4.25-21.431 21.244-34.287 42.492-34.287zM467.26 278.861h174.217c16.994 0 25.493-12.855 33.993-25.715 8.499-12.855 8.499-29.999 0-42.859l-169.967-257.143c-8.499-8.572-21.248-17.143-33.997-17.143-8.495 0-16.994 4.284-25.493 8.572-21.246 12.855-25.495 38.571-12.749 60.002l127.475 188.574h-174.215c-16.997 0-29.745 8.567-33.994 21.427-8.498 12.855-8.498 29.999 0 42.859l169.967 257.143c12.749 21.429 38.242 25.715 59.49 12.86 21.244-12.86 25.493-38.575 12.749-60.002l-127.475-188.574z" />
<glyph unicode="&#xe93f;" glyph-name="cloud-off" d="M1011.268 8.533l-933.702 938.667c-16.976 17.067-42.441 17.067-59.417 0s-16.976-42.667 0-59.733l131.567-132.267c-63.661-51.2-110.346-119.467-135.811-204.8-25.465-98.133-16.976-200.533 33.953-290.133 67.905-119.467 195.228-196.267 335.284-196.267h386.211c18.125 0 33.156 3.115 50.377 6.677 2.94 0.61 5.948 1.233 9.041 1.856l123.081-123.733c8.486-8.533 16.977-12.8 29.709-12.8s21.218 4.267 29.709 12.8c16.977 17.067 16.977 42.667 0 59.733zM374.653 793.6c-4.244-25.6 16.976-42.667 38.196-46.933 127.323-12.8 229.181-102.4 258.89-226.133 4.245-21.333 21.222-34.133 42.441-34.133h55.172c25.468 0 46.686-4.267 67.908-12.8 84.881-34.133 127.322-136.533 89.126-221.867-8.491-21.333 0-46.933 21.218-55.467 4.245-4.267 12.732-4.267 16.977-4.267 16.977 0 33.954 12.8 38.195 25.6 55.177 132.267-8.486 281.6-135.808 337.067-29.709 12.8-63.663 21.333-97.617 21.333h-21.218c-50.931 140.8-178.253 243.2-326.796 256-25.465 4.267-46.685-17.067-46.685-38.4zM213.378 691.2l539.002-541.867h-364.994c-110.347-4.267-212.205 55.467-263.134 153.6-38.197 68.267-46.685 149.333-25.465 226.133 16.976 68.267 59.417 123.733 114.591 162.133z" />
<glyph unicode="&#xe940;" glyph-name="cloud-rain" d="M767.467 703.997c102.272 0 191.757-59.733 234.368-153.6 25.57-64.002 29.828-132.268 8.525-200.535-25.57-64-72.444-115.2-136.363-140.8-4.258-4.267-12.783-4.267-17.041-4.267-17.045 0-29.833 8.533-38.353 25.6-8.521 21.333 0 46.933 21.308 55.467 42.611 17.067 72.439 51.2 89.485 93.867s12.783 89.6-4.262 132.267c-29.828 64.002-89.485 102.402-157.666 102.402h-55.394c-21.308 0-38.353 17.067-42.611 34.133-38.353 157.867-204.54 256-362.206 213.333-157.665-38.4-255.674-204.8-213.062-362.668 17.045-59.733 51.135-119.467 102.27-157.867 21.306-12.8 21.306-42.667 8.522-59.733-12.784-21.333-42.612-21.333-59.657-8.533-63.919 51.2-110.792 123.733-132.098 204.8-55.396 209.068 68.18 418.135 276.98 469.335 191.757 51.2 392.034-55.467 455.953-243.2h21.303zM341.345 447.996c-25.567 0-42.612-17.067-42.612-42.667v-341.333c0-25.6 17.045-42.667 42.612-42.667s42.612 17.067 42.612 42.667v341.333c0 25.6-17.045 42.667-42.612 42.667zM724.855 63.996v341.333c0 25.6-17.045 42.667-42.611 42.667-25.57 0-42.611-17.067-42.611-42.667v-341.333c0-25.6 17.041-42.667 42.611-42.667 25.566 0 42.611 17.067 42.611 42.667zM469.184 319.996c0 25.6 17.041 42.667 42.611 42.667 25.566 0 42.611-17.067 42.611-42.667v-341.333c0-25.6-17.045-42.667-42.611-42.667-25.57 0-42.611 17.067-42.611 42.667v341.333z" />
<glyph unicode="&#xe941;" glyph-name="cloud-snow" d="M1006.81 311.573c-25.583-64.021-72.491-115.238-136.452-140.847-4.262-4.267-12.791-4.267-17.058-4.267-17.054 0-34.112 8.533-38.374 25.609-8.529 21.338 0 46.946 21.321 55.484 42.641 17.071 72.491 51.217 89.545 93.897 17.058 42.679 17.058 89.626-4.262 132.309-25.587 64.018-85.282 102.43-153.51 102.43h-55.433c-21.325 0-38.379 12.804-42.645 34.144-42.641 157.917-204.681 256.081-362.453 213.401-157.775-42.68-255.851-204.864-213.209-362.779 17.057-64.021 51.17-119.505 102.34-157.918 17.057-12.804 21.321-42.679 8.529-59.75-12.793-17.075-42.642-21.342-59.699-8.538-63.962 51.217-110.868 123.772-132.189 204.864-55.434 204.865 68.227 413.997 272.907 465.213 196.152 51.216 392.303-59.752 456.265-243.277h25.587c102.34 0 191.889-59.752 234.53-153.649 25.583-64.021 29.85-132.309 4.262-196.326zM704.055 142.985c1.067-1.067 2.129-2.133 4.262-2.133 0 0 4.267 0 4.267-4.267 8.525-8.538 12.791-17.075 12.791-29.879 0-12.8-4.267-21.338-12.791-29.875-8.529-8.533-17.058-12.804-29.85-12.804-12.796 0-21.321 4.271-29.85 12.804-8.529 8.538-12.796 17.075-12.796 29.875 0 12.804 4.267 21.342 12.796 29.879 8.529 12.804 25.583 17.071 38.374 12.804 2.453-2.458 3.494-3.499 4.749-3.942 0.926-0.329 1.971-0.329 3.78-0.329 2.133 0 3.2-1.067 4.267-2.133zM324.542 145.118c-4.264 0-8.528-4.267-12.792-8.533-8.529-8.538-12.793-17.075-12.793-29.879 0-12.8 4.264-21.338 12.793-29.875 8.528-8.533 17.056-12.804 29.849-12.804s21.321 4.271 29.849 12.804c8.528 8.538 12.793 17.075 12.793 29.875 0 12.804-4.265 21.342-12.793 29.879-12.792 12.804-29.849 17.071-46.906 8.533zM542.016 51.221c-17.058 17.075-46.908 17.075-59.699 0-4.262-4.267-8.529-8.533-8.529-12.804-4.262-4.267-4.262-12.804-4.262-17.071 0-12.804 4.262-21.338 12.791-29.875s17.058-12.804 29.85-12.804c4.262 0 12.791 0 17.058 4.267 2.129 2.133 4.262 3.204 6.396 4.271 2.129 1.067 4.262 2.133 6.396 4.267 8.529 8.538 12.791 17.071 12.791 29.875 0 4.267 0 12.804-4.262 17.071 0 4.271-4.267 8.538-8.529 12.804zM473.788 209.139c0 4.267 4.267 8.538 8.529 12.804 17.058 17.071 42.641 17.071 59.699 0 8.529-8.538 12.791-17.071 12.791-29.875s-4.262-21.342-12.791-29.875c-8.529-8.538-17.058-12.804-29.85-12.804-4.996 0-8.529 1.463-11.456 2.675-2.069 0.858-3.836 1.591-5.602 1.591-4.262 0-8.529 4.267-12.791 8.538-8.529 8.533-12.791 17.071-12.791 29.875 0 5.001 1.463 8.533 2.675 11.465 0.858 2.069 1.587 3.84 1.587 5.606zM712.585 307.302c-17.058 17.075-42.645 17.075-59.699 0v0c-4.267-4.267-8.529-8.533-8.529-12.804 0-2.133-1.067-5.333-2.133-8.533-1.067-3.204-2.133-6.404-2.133-8.538 0-4.267 0-12.804 4.267-17.071 2.133-2.133 3.196-4.271 4.262-6.404s2.133-4.267 4.267-6.4c8.529-8.538 17.054-12.804 29.85-12.804 12.791 0 21.321 4.267 29.85 12.804 8.525 8.533 12.791 17.071 12.791 29.875 0 4.267 0 12.804-4.267 17.071 0 4.271-4.262 8.538-8.525 12.804zM311.75 307.302c17.056 17.075 42.641 17.075 59.698 0 4.264-4.267 8.528-8.533 8.528-12.804 4.265-4.267 4.265-12.804 4.265-17.071s0-12.804-4.265-17.071c0-4.271-4.264-8.538-8.528-12.804-8.528-8.538-17.057-12.804-29.849-12.804s-21.321 4.267-29.849 12.804c-2.132 2.133-3.198 4.267-4.264 6.4s-2.132 4.271-4.265 6.404c-4.264 4.267-4.264 12.804-4.264 17.071s0 12.804 4.264 17.071c0 4.271 4.265 8.538 8.529 12.804z" />
<glyph unicode="&#xe942;" glyph-name="code" d="M311.467 733.867c17.067 17.067 42.667 17.067 59.733 0s17.067-42.667 0-59.733l-226.133-226.133 226.133-226.133c17.067-17.067 17.067-42.667 0-59.733-8.533-8.533-17.067-12.8-29.867-12.8s-21.333 4.267-29.867 12.8l-256 256c-17.067 17.067-17.067 42.667 0 59.733l256 256zM712.533 162.133l256 256c17.067 17.067 17.067 42.667 0 59.733l-256 256c-17.067 17.067-42.667 17.067-59.733 0s-17.067-42.667 0-59.733l226.133-226.133-226.133-226.133c-17.067-17.067-17.067-42.667 0-59.733 8.533-8.533 17.067-12.8 29.867-12.8s21.333 4.267 29.867 12.8z" />
<glyph unicode="&#xe943;" glyph-name="Coffee" d="M597.333 917.333c23.565 0 42.667-19.103 42.667-42.667v-128c0-23.564-19.102-42.667-42.667-42.667s-42.667 19.103-42.667 42.667v128c0 23.564 19.102 42.667 42.667 42.667zM768 618.667h46.063c13.495 0 21.589-1.476 32.316-3.432 4.023-0.734 8.418-1.535 13.606-2.351 101.513-16.043 150.541-123.216 159.923-164.884s4.092-115.759-50.368-184.759c-47.697-60.429-137.344-69.653-158.874-71.014v-42.893c0-94.255-76.412-170.667-170.667-170.667h-426.667c-94.257 0-170.667 76.412-170.667 170.667v469.333h725.333zM853.948 283.511c58.069 22.251 79.68 84.356 79.68 84.356s21.342 71.578-30.016 125.094c-27.541 28.698-64.55 38.229-92.945 40.893v-254.99c10.705 1.028 24.802 2.513 43.281 4.646zM128 533.333v-341.333c0-70.694 57.308-128 128-128h341.333c70.694 0 128 57.306 128 128v341.333h-597.333zM384 874.667v-128c0-23.564 19.102-42.667 42.667-42.667s42.667 19.103 42.667 42.667v128c0 23.564-19.102 42.667-42.667 42.667s-42.667-19.103-42.667-42.667zM256 917.333c23.564 0 42.667-19.103 42.667-42.667v-128c0-23.564-19.103-42.667-42.667-42.667s-42.667 19.103-42.667 42.667v128c0 23.564 19.103 42.667 42.667 42.667z" />
<glyph unicode="&#xe944;" glyph-name="contact-phone" d="M938.667 832h-853.333c-46.933 0-85.333-38.4-85.333-85.333v-597.333c0-46.933 38.4-85.333 85.333-85.333h853.333c46.933 0 84.907 38.4 84.907 85.333l0.427 597.333c0 46.933-38.4 85.333-85.333 85.333zM938.667 149.333h-853.333v597.333h853.333v-597.333zM811.093 192.427l84.907 84.907-64.427 85.333h-69.973c-9.387 26.88-14.933 55.467-14.933 85.333s5.547 58.453 14.933 85.333h69.973l64.427 85.333-84.907 84.907c-56.614-42.275-97.587-102.156-116.48-170.24-7.68-27.307-11.947-55.893-11.947-85.333s4.267-58.027 11.947-85.333c19.008-68.032 59.955-127.881 116.48-170.24v0zM384 448c70.4 0 128 57.6 128 128s-57.6 128-128 128c-70.4 0-128-57.6-128-128s57.6-128 128-128zM384 618.667c23.467 0 42.667-19.2 42.667-42.667s-19.2-42.667-42.667-42.667c-23.467 0-42.667 19.2-42.667 42.667s19.2 42.667 42.667 42.667zM640 252.16c0 106.667-169.387 152.747-256 152.747s-256-46.080-256-152.747v-60.16h512v60.16zM233.813 277.333c31.573 21.333 94.72 42.667 150.187 42.667s118.187-20.907 150.187-42.667h-300.373z" />
<glyph unicode="&#xe945;" glyph-name="co-present" d="M896 832h-768c-46.933 0-85.333-38.4-85.333-85.333v-341.333h85.333v341.333h768v-682.667c46.933 0 85.333 38.4 85.333 85.333v597.333c0 46.933-38.4 85.333-85.333 85.333zM554.667 533.333c0 94.293-76.373 170.667-170.667 170.667s-170.667-76.373-170.667-170.667c0-94.293 76.373-170.667 170.667-170.667s170.667 76.373 170.667 170.667zM298.667 533.333c0 46.933 38.4 85.333 85.333 85.333s85.333-38.4 85.333-85.333c0-46.933-38.4-85.333-85.333-85.333s-85.333 38.4-85.333 85.333zM656.64 253.44c-71.68 36.693-164.693 66.56-272.64 66.56s-200.96-29.867-272.64-66.56c-20.819-10.722-38.259-27.004-50.385-47.040-12.126-20.032-18.463-43.038-18.308-66.453v-118.613h682.667v118.613c0 47.787-26.027 91.733-68.693 113.493zM640 106.667h-512c0 30.72-4.267 57.173 22.187 70.827 50.773 26.027 132.693 57.173 233.813 57.173s183.040-31.147 233.813-57.173c26.88-13.653 22.187-40.533 22.187-70.827z" />
<glyph unicode="&#xe946;" glyph-name="copy" d="M213.333 277.333c25.6 0 42.667 17.067 42.667 42.667s-17.067 42.667-42.667 42.667h-42.667c-25.6 0-42.667 17.067-42.667 42.667v384c0 25.6 17.067 42.667 42.667 42.667h384c25.6 0 42.667-17.067 42.667-42.667v-42.667c0-25.6 17.067-42.667 42.667-42.667s42.667 17.067 42.667 42.667v42.667c0 72.533-55.467 128-128 128h-384c-72.533 0-128-55.467-128-128v-384c0-72.533 55.467-128 128-128h42.667zM853.333 618.667h-384c-72.533 0-128-55.467-128-128v-384c0-72.533 55.467-128 128-128h384c72.533 0 128 55.467 128 128v384c0 72.533-55.467 128-128 128zM896 106.667c0-25.6-17.067-42.667-42.667-42.667h-384c-25.6 0-42.667 17.067-42.667 42.667v384c0 25.6 17.067 42.667 42.667 42.667h384c25.6 0 42.667-17.067 42.667-42.667v-384z" />
<glyph unicode="&#xe947;" glyph-name="corner-down-left" d="M896 789.333v-298.667c0-119.467-93.999-213.333-213.632-213.333h-410.168l140.996-140.8c17.089-17.067 17.089-42.667 0-59.733-8.545-8.533-17.090-12.8-29.908-12.8s-21.363 4.267-29.908 12.8l-213.63 213.333c-4.273 4.267-8.545 8.533-8.545 12.8-4.272 8.533-4.272 21.333 0 34.133 4.273 4.267 4.273 8.533 8.545 12.8l213.63 213.333c17.090 17.067 42.726 17.067 59.816 0 17.089-17.067 17.089-42.667 0-59.733l-140.996-140.8h410.168c72.636 0 128.179 55.467 128.179 128v298.667c0 25.6 17.092 42.667 42.726 42.667s42.726-17.067 42.726-42.667z" />
<glyph unicode="&#xe948;" glyph-name="corner-down-right" d="M883.2 290.133l-213.333-213.333c-8.533-8.533-17.067-12.8-29.867-12.8s-21.333 4.267-29.867 12.8c-17.067 17.067-17.067 42.667 0 59.733l140.8 140.8h-409.6c-119.467 0-213.333 93.867-213.333 213.333v298.667c0 25.6 17.067 42.667 42.667 42.667s42.667-17.067 42.667-42.667v-298.667c0-72.533 55.467-128 128-128h409.6l-140.8 140.8c-17.067 17.067-17.067 42.667 0 59.733s42.667 17.067 59.733 0l213.333-213.333c4.267-4.267 8.533-8.533 8.533-12.8 4.267-8.533 4.267-21.333 0-34.133 0-4.267-4.267-8.533-8.533-12.8z" />
<glyph unicode="&#xe949;" glyph-name="corner-left-down" d="M896 789.333c0-25.6-17.067-42.667-42.667-42.667h-298.667c-72.533 0-128-55.467-128-128v-409.6l140.8 140.8c17.067 17.067 42.667 17.067 59.733 0s17.067-42.667 0-59.733l-213.333-213.333c-4.267-4.267-8.533-8.533-12.8-8.533-4.267-4.267-12.8-4.267-17.067-4.267s-12.8 0-17.067 4.267c-4.267 4.267-8.533 4.267-12.8 8.533l-213.333 213.333c-17.067 17.067-17.067 42.667 0 59.733s42.667 17.067 59.733 0l140.8-140.8v409.6c0 119.467 93.867 213.333 213.333 213.333h298.667c25.6 0 42.667-17.067 42.667-42.667z" />
<glyph unicode="&#xe94a;" glyph-name="corner-left-up" d="M896 107.733c0-25.6-17.067-42.667-42.667-42.667h-298.667c-119.467 0-213.333 93.867-213.333 213.333v409.6l-140.8-140.8c-17.067-17.067-42.667-17.067-59.733 0s-17.067 42.667 0 59.733l213.333 213.333c4.267 4.267 8.533 8.533 12.8 8.533 12.8 4.267 21.333 4.267 34.133 0 4.267-4.267 8.533-4.267 12.8-8.533l213.333-213.333c17.067-17.067 17.067-42.667 0-59.733-8.533-8.533-17.067-12.8-29.867-12.8s-21.333 4.267-29.867 12.8l-140.8 140.8v-409.6c0-72.533 55.467-128 128-128h298.667c25.6 0 42.667-17.067 42.667-42.667z" />
<glyph unicode="&#xe94b;" glyph-name="corner-right-down" d="M883.2 290.133l-213.333-213.333c-4.267-4.267-8.533-8.533-12.8-8.533-4.267-4.267-12.8-4.267-17.067-4.267s-12.8 0-17.067 4.267c-4.267 4.267-8.533 4.267-12.8 8.533l-213.333 213.333c-17.067 17.067-17.067 42.667 0 59.733s42.667 17.067 59.733 0l140.8-140.8v409.6c0 72.533-55.467 128-128 128h-298.667c-25.6 0-42.667 17.067-42.667 42.667s17.067 42.667 42.667 42.667h298.667c119.467 0 213.333-93.867 213.333-213.333v-409.6l140.8 140.8c17.067 17.067 42.667 17.067 59.733 0s17.067-42.667 0-59.733z" />
<glyph unicode="&#xe94c;" glyph-name="corner-right-up" d="M883.2 547.2c-8.533-8.533-17.067-12.8-29.867-12.8s-21.333 4.267-29.867 12.8l-140.8 140.8v-409.6c0-119.467-93.867-213.333-213.333-213.333h-298.667c-25.6 0-42.667 17.067-42.667 42.667s17.067 42.667 42.667 42.667h298.667c72.533 0 128 55.467 128 128v409.6l-140.8-140.8c-17.067-17.067-42.667-17.067-59.733 0s-17.067 42.667 0 59.733l213.333 213.333c4.267 4.267 8.533 8.533 12.8 8.533 8.533 4.267 21.333 4.267 34.133 0 4.267-4.267 8.533-4.267 12.8-8.533l213.333-213.333c17.067-17.067 17.067-42.667 0-59.733z" />
<glyph unicode="&#xe94d;" glyph-name="corner-up-left" d="M894.933 405.333v-298.667c0-25.6-17.067-42.667-42.667-42.667s-42.667 17.067-42.667 42.667v298.667c0 72.533-55.467 128-128 128h-409.6l140.8-140.8c17.067-17.067 17.067-42.667 0-59.733-8.533-8.533-17.067-12.8-29.867-12.8s-21.333 4.267-29.867 12.8l-213.333 213.333c-4.267 4.267-8.533 8.533-8.533 12.8-4.267 12.8-4.267 21.333 0 34.133 4.267 4.267 4.267 8.533 8.533 12.8l213.333 213.333c17.067 17.067 42.667 17.067 59.733 0s17.067-42.667 0-59.733l-140.8-140.8h409.6c119.467 0 213.333-93.867 213.333-213.333z" />
<glyph unicode="&#xe94e;" glyph-name="corner-up-right" d="M883.2 546.133l-213.333-213.333c-8.533-8.533-17.067-12.8-29.867-12.8s-21.333 4.267-29.867 12.8c-17.067 17.067-17.067 42.667 0 59.733l140.8 140.8h-409.6c-72.533 0-128-55.467-128-128v-298.667c0-25.6-17.067-42.667-42.667-42.667s-42.667 17.067-42.667 42.667v298.667c0 119.467 93.867 213.333 213.333 213.333h409.6l-140.8 140.8c-17.067 17.067-17.067 42.667 0 59.733s42.667 17.067 59.733 0l213.333-213.333c4.267-4.267 8.533-8.533 8.533-12.8 4.267-8.533 4.267-21.333 0-34.133 0-4.267-4.267-8.533-8.533-12.8z" />
<glyph unicode="&#xe94f;" glyph-name="cpu" d="M981.333 405.333c25.6 0 42.667-17.067 42.667-42.667s-17.067-42.667-42.667-42.667h-85.333v-128c0-72.533-55.467-128-128-128h-85.333v-85.333c0-25.6-17.067-42.667-42.667-42.667s-42.667 17.067-42.667 42.667v85.333h-170.667v-85.333c0-25.6-17.067-42.667-42.667-42.667s-42.667 17.067-42.667 42.667v85.333h-85.333c-72.533 0-128 55.467-128 128v128h-85.333c-25.6 0-42.667 17.067-42.667 42.667s17.067 42.667 42.667 42.667h85.333v128h-85.333c-25.6 0-42.667 17.067-42.667 42.667s17.067 42.667 42.667 42.667h85.333v85.333c0 72.533 55.467 128 128 128h85.333v85.333c0 25.6 17.067 42.667 42.667 42.667s42.667-17.067 42.667-42.667v-85.333h170.667v85.333c0 25.6 17.067 42.667 42.667 42.667s42.667-17.067 42.667-42.667v-85.333h85.333c72.533 0 128-55.467 128-128v-85.333h85.333c25.6 0 42.667-17.067 42.667-42.667s-17.067-42.667-42.667-42.667h-85.333v-128h85.333zM384 618.667h256c25.6 0 42.667-17.067 42.667-42.667v-256c0-25.6-17.067-42.667-42.667-42.667h-256c-25.6 0-42.667 17.067-42.667 42.667v256c0 25.6 17.067 42.667 42.667 42.667zM426.667 362.667h170.667v170.667h-170.667v-170.667zM768 149.333c25.6 0 42.667 17.067 42.667 42.667v512c0 25.6-17.067 42.667-42.667 42.667h-512c-25.6 0-42.667-17.067-42.667-42.667v-512c0-25.6 17.067-42.667 42.667-42.667h512z" />
<glyph unicode="&#xe950;" glyph-name="credit-card" d="M896 832h-768c-72.533 0-128-55.467-128-128v-512c0-72.533 55.467-128 128-128h768c72.533 0 128 55.467 128 128v512c0 72.533-55.467 128-128 128zM896 149.333h-768c-25.6 0-42.667 17.067-42.667 42.667v298.667h853.333v-298.667c0-25.6-17.067-42.667-42.667-42.667zM896 746.667c25.6 0 42.667-17.067 42.667-42.667v-128h-853.333v128c0 25.6 17.067 42.667 42.667 42.667h768z" />
<glyph unicode="&#xe951;" glyph-name="crop" d="M810.667 234.667h170.667c25.6 0 42.667-17.067 42.667-42.667s-17.067-42.667-42.667-42.667h-170.667v-170.667c0-25.6-17.067-42.667-42.667-42.667s-42.667 17.067-42.667 42.667v170.667h-384c-72.533 0-128 55.467-128 128l4.267 379.733h-174.933c-21.333 0-42.667 21.333-42.667 42.667s17.067 42.667 42.667 42.667h174.933v174.933c0 25.6 21.333 42.667 42.667 42.667 25.6 0 42.667-17.067 42.667-42.667v-174.933l379.733 4.267c72.533 0 128-55.467 128-128v-384zM298.667 277.333c0-25.6 17.067-42.667 42.667-42.667h384v384c0 25.6-17.067 42.667-42.667 42.667l-379.733-4.267-4.267-379.733z" />
<glyph unicode="&#xe952;" glyph-name="crosshair" d="M42.667 448c0 260.267 209.067 469.333 469.333 469.333s469.333-209.067 469.333-469.333c0-260.267-209.067-469.333-469.333-469.333s-469.333 209.067-469.333 469.333zM554.667 192v-123.733c179.2 17.067 320 157.867 337.067 337.067h-123.733c-25.6 0-42.667 17.067-42.667 42.667s17.067 42.667 42.667 42.667h123.733c-17.067 174.933-157.867 315.733-337.067 337.067v-123.733c0-25.6-17.067-42.667-42.667-42.667s-42.667 17.067-42.667 42.667v123.733c-179.2-17.067-320-157.867-337.067-337.067h123.733c25.6 0 42.667-17.067 42.667-42.667s-17.067-42.667-42.667-42.667h-123.733c17.067-174.933 157.867-315.733 337.067-337.067v123.733c0 25.6 17.067 42.667 42.667 42.667s42.667-17.067 42.667-42.667z" />
<glyph unicode="&#xe953;" glyph-name="database" d="M85.333 746.667c0 115.2 221.867 170.667 426.667 170.667s426.667-55.467 426.667-170.667v-597.333c0-115.2-221.867-170.667-426.667-170.667s-426.667 55.467-426.667 170.667v597.333zM170.667 149.333c0-21.333 106.667-85.333 341.333-85.333s341.333 64 341.333 85.333v192c-81.067-42.667-213.333-64-341.333-64s-260.267 21.333-341.333 64v-192zM853.333 448v192c-81.067-42.667-213.333-64-341.333-64s-260.267 21.333-341.333 64v-192c0-21.333 106.667-85.333 341.333-85.333s341.333 64 341.333 85.333zM853.333 746.667c0 21.333-119.467 85.333-341.333 85.333s-341.333-64-341.333-85.333c0-21.333 119.467-85.333 341.333-85.333s341.333 64 341.333 85.333z" />
<glyph unicode="&#xe954;" glyph-name="delete" d="M896.132 832h-554.089c-12.787 0-25.574-4.267-34.098-12.8l-298.356-341.333c-12.787-17.067-12.787-38.4 0-55.467l298.356-341.333c8.524-12.8 21.311-17.067 34.098-17.067h554.089c72.461 0 127.868 55.467 127.868 128v512c0 72.533-55.407 128-127.868 128zM938.756 192c0-25.6-17.050-42.667-42.624-42.667h-532.777l-259.996 298.667 259.996 298.667h532.777c25.574 0 42.624-17.067 42.624-42.667v-512zM700.070 448l98.031 98.133c17.050 17.067 17.050 42.667 0 59.733s-42.62 17.067-59.669 0l-98.031-98.133-98.031 98.133c-17.050 17.067-42.624 17.067-59.674 0s-17.050-42.667 0-59.733l98.031-98.133-98.031-98.133c-17.050-17.067-17.050-42.667 0-59.733 8.525-8.533 17.050-12.8 29.837-12.8s21.312 4.267 29.837 12.8l98.031 98.133 98.031-98.133c8.525-8.533 17.050-12.8 29.833-12.8 12.787 0 21.312 4.267 29.837 12.8 17.050 17.067 17.050 42.667 0 59.733l-98.031 98.133z" />
<glyph unicode="&#xe955;" glyph-name="diamond" d="M810.667 832h-597.333l-128-256 426.667-512 426.667 512-128 256zM410.453 618.667l64 128h75.093l64-128h-203.093zM469.333 533.333v-285.013l-237.227 285.013h237.227zM554.667 533.333h237.227l-237.227-285.013v285.013zM821.76 618.667h-113.067l-64 128h113.067l64-128zM266.24 746.667h113.067l-64-128h-113.067l64 128z" />
<glyph unicode="&#xe956;" glyph-name="download" d="M494.933 238.933c-4.267 0-8.533 4.267-12.8 8.533l-170.667 170.667c-17.067 17.067-17.067 42.667 0 59.733s42.667 17.067 59.733 0l98.133-98.133v494.933c0 25.6 17.067 42.667 42.667 42.667s42.667-17.067 42.667-42.667v-494.933l98.133 98.133c17.067 17.067 42.667 17.067 59.733 0s17.067-42.667 0-59.733l-170.667-170.667c-2.133-2.133-4.267-3.2-6.4-4.267s-4.267-2.133-6.4-4.267c-4.267-4.267-12.8-4.267-17.067-4.267s-12.8 0-17.067 4.267zM938.667 106.667v128c0 25.6-17.067 42.667-42.667 42.667s-42.667-17.067-42.667-42.667v-128c0-25.6-17.067-42.667-42.667-42.667h-597.333c-25.6 0-42.667 17.067-42.667 42.667v128c0 25.6-17.067 42.667-42.667 42.667s-42.667-17.067-42.667-42.667v-128c0-72.533 55.467-128 128-128h597.333c72.533 0 128 55.467 128 128z" />
<glyph unicode="&#xe957;" glyph-name="download-cloud" d="M763.162 618.664c84.442 0 160.435-42.667 206.878-106.668 37.999-59.733 63.33-123.733 50.667-192-12.668-68.267-50.667-128-105.553-166.4-8.444-4.267-16.887-8.533-25.331-8.533-12.668 0-25.331 4.267-33.775 17.067-16.887 21.333-12.668 46.933 8.444 59.733 33.775 25.6 59.106 64 67.55 110.933 8.448 46.933-4.22 89.6-29.551 128-33.779 46.933-84.442 72.533-139.328 72.533h-50.667c-21.107 0-37.995 17.068-42.219 34.135-37.999 157.867-202.658 256-358.873 213.333-75.997-17.067-139.327-68.267-181.548-136.533s-54.887-149.335-33.777-226.135c8.444-46.933 33.777-89.6 63.331-123.733 16.888-17.067 12.666-42.667-4.222-59.733s-42.22-12.8-59.109 4.267c-42.22 42.667-67.552 98.133-84.441 157.867-25.332 98.133-8.444 200.535 42.221 290.135 54.886 89.6 135.105 149.333 236.434 174.933 189.993 51.2 388.427-55.467 451.757-243.2h21.111zM539.392 34.129l168.883 170.667c16.887 17.067 16.887 42.667 0 59.733s-42.223 17.067-59.11 0l-97.105-98.133v281.6c0 25.6-16.887 42.667-42.223 42.667-25.331 0-42.219-17.067-42.219-42.667v-281.6l-97.107 98.133c-16.888 17.067-42.22 17.067-59.108 0s-16.888-42.667 0-59.733l168.883-170.667c2.108-2.133 4.22-3.2 6.332-4.267s4.224-2.133 6.332-4.267c4.224-4.267 12.668-4.267 16.887-4.267 4.224 0 12.668 0 16.892 4.267 4.22 0 8.444 4.267 12.663 8.533z" />
<glyph unicode="&#xe958;" glyph-name="drag-vertical" d="M384 832h85.333v-85.333h-85.333v85.333zM554.667 832h85.333v-85.333h-85.333v85.333zM384 661.333h85.333v-85.333h-85.333v85.333zM554.667 661.333h85.333v-85.333h-85.333v85.333zM384 490.667h85.333v-85.333h-85.333v85.333zM554.667 490.667h85.333v-85.333h-85.333v85.333zM384 320h85.333v-85.333h-85.333v85.333zM554.667 320h85.333v-85.333h-85.333v85.333zM384 149.333h85.333v-85.333h-85.333v85.333zM554.667 149.333h85.333v-85.333h-85.333v85.333z" />
<glyph unicode="&#xe959;" glyph-name="droplet" d="M541.867 904.533l243.2-238.933c149.333-153.6 149.333-396.8 0-546.133-72.533-72.533-170.667-110.933-273.067-110.933s-200.533 38.4-273.067 110.933c-72.533 72.533-110.933 170.667-110.933 273.067s38.4 200.533 115.2 273.067l238.933 238.933c8.533 8.533 17.067 12.8 29.867 12.8s21.333-4.267 29.867-12.8zM512 93.867c81.067 0 153.6 29.867 213.333 85.333 115.2 119.467 115.2 307.2-4.267 422.4l-213.333 213.333-209.067-213.333c-55.467-55.467-85.333-128-85.333-209.067s29.867-153.6 89.6-213.333c55.467-55.467 128-85.333 209.067-85.333z" />
<glyph unicode="&#xe95a;" glyph-name="edit" d="M968.533 674.133c17.067 17.067 17.067 42.667 0 59.733l-170.667 170.667c-17.067 17.067-42.667 17.067-59.733 0l-426.667-426.667c-8.533-8.533-12.8-17.067-12.8-29.867v-170.667c0-25.6 17.067-42.667 42.667-42.667h170.667c12.8 0 21.333 4.267 29.867 12.8l426.667 426.667zM896 332.8c0 25.6-17.067 42.667-42.667 42.667s-42.667-17.067-42.667-42.667v-226.133c0-25.6-17.067-42.667-42.667-42.667h-597.333c-25.6 0-42.667 17.067-42.667 42.667v597.333c0 25.6 17.067 42.667 42.667 42.667h226.133c25.6 0 42.667 17.067 42.667 42.667s-17.067 42.667-42.667 42.667h-226.133c-72.533 0-128-55.467-128-128v-597.333c0-72.533 55.467-128 128-128h597.333c72.533 0 128 55.467 128 128v226.133zM768 814.933l110.933-110.933-384-384h-110.933v110.933l384 384z" />
<glyph unicode="&#xe95b;" glyph-name="edit-2" d="M712.533 861.867l213.333-213.333c17.067-17.067 17.067-42.667 0-59.733l-554.667-554.667c-8.533-8.533-17.067-12.8-29.867-12.8h-213.333c-25.6 0-42.667 17.067-42.667 42.667v213.333c0 12.8 4.267 21.333 12.8 29.867l554.667 554.667c17.067 17.067 42.667 17.067 59.733 0zM170.667 106.667h153.6l512 512-153.6 153.6-512-512v-153.6z" />
<glyph unicode="&#xe95c;" glyph-name="edit-3" d="M128 192c-25.6 0-42.667 17.067-42.667 42.667v170.667c0 12.8 4.267 21.333 12.8 29.867l469.333 469.333c17.067 17.067 42.667 17.067 59.733 0l170.667-170.667c17.067-17.067 17.067-42.667 0-59.733l-469.333-469.333c-8.533-8.533-17.067-12.8-29.867-12.8h-170.667zM938.667 21.333c0 25.6-17.067 42.667-42.667 42.667h-768c-25.6 0-42.667-17.067-42.667-42.667s17.067-42.667 42.667-42.667h768c25.6 0 42.667 17.067 42.667 42.667zM597.333 814.933l-426.667-426.667v-110.933h110.933l426.667 426.667-110.933 110.933z" />
<glyph unicode="&#xe95d;" glyph-name="external-link" d="M913.067 870.4c8.533-4.267 17.067-12.8 21.333-21.333 4.267-4.267 4.267-12.8 4.267-17.067v-256c0-25.6-17.067-42.667-42.667-42.667s-42.667 17.067-42.667 42.667v153.6l-396.8-396.8c-8.533-8.533-17.067-12.8-29.867-12.8s-21.333 4.267-29.867 12.8c-17.067 17.067-17.067 42.667 0 59.733l396.8 396.8h-153.6c-25.6 0-42.667 17.067-42.667 42.667s17.067 42.667 42.667 42.667h256c4.267 0 12.8 0 17.067-4.267zM810.667 149.333v256c0 25.6-17.067 42.667-42.667 42.667s-42.667-17.067-42.667-42.667v-256c0-25.6-17.067-42.667-42.667-42.667h-469.333c-25.6 0-42.667 17.067-42.667 42.667v469.333c0 25.6 17.067 42.667 42.667 42.667h256c25.6 0 42.667 17.067 42.667 42.667s-17.067 42.667-42.667 42.667h-256c-72.533 0-128-55.467-128-128v-469.333c0-72.533 55.467-128 128-128h469.333c72.533 0 128 55.467 128 128z" />
<glyph unicode="&#xe95e;" glyph-name="eye" d="M1020.791 465.067c-8.55 17.067-188.122 366.933-508.791 366.933-320.668 0-500.242-349.867-508.793-366.933-4.276-12.8-4.276-25.6 0-38.4 0.502-0.751 1.595-2.667 3.272-5.606 26.865-47.091 203.692-357.060 505.522-357.060 320.67 0 500.241 349.867 508.791 366.933 4.279 8.533 4.279 25.6 0 34.133zM512 149.333c-230.881 0-380.526 230.4-423.282 298.667 38.48 68.267 192.401 298.667 423.282 298.667 230.882 0 380.527-230.4 423.283-298.667-42.756-68.267-192.401-298.667-423.283-298.667zM512 618.667c-94.063 0-171.023-76.8-171.023-170.667s76.96-170.667 171.023-170.667c94.063 0 171.025 76.8 171.025 170.667s-76.962 170.667-171.025 170.667zM512 362.667c-47.031 0-85.512 38.4-85.512 85.333s38.48 85.333 85.512 85.333c47.031 0 85.513-38.4 85.513-85.333s-38.481-85.333-85.513-85.333z" />
<glyph unicode="&#xe95f;" glyph-name="facebook" d="M808.998 704c0-25.6-17.015-42.667-42.539-42.667h-127.616v-85.333h127.616c12.762 0 25.523 0 34.031-12.8s12.762-25.6 8.508-38.4l-42.539-170.667c-4.254-21.333-21.269-34.133-42.539-34.133h-85.077v-298.667c0-25.6-17.015-42.667-42.539-42.667h-170.152c-25.523 0-42.539 17.067-42.539 42.667v298.667h-85.076c-25.523 0-42.538 17.067-42.538 42.667v170.667c0 25.6 17.015 42.667 42.538 42.667h85.076v85.333c0 140.8 114.856 256 255.229 256h127.616c25.523 0 42.539-17.067 42.539-42.667v-170.667zM711.159 490.667h-114.854c-25.523 0-42.539 17.067-42.539 42.667v128c0 46.933 38.285 85.333 85.077 85.333h85.077v85.333h-85.077c-93.585 0-170.15-76.8-170.15-170.667v-128c0-25.6-17.015-42.667-42.54-42.667h-85.077v-85.333h85.077c25.524 0 42.54-17.067 42.54-42.667v-298.667h85.073v298.667c0 25.6 17.015 42.667 42.539 42.667h93.585l21.269 85.333z" />
<glyph unicode="&#xe960;" glyph-name="facebook-1" d="M583.347-63.829v466.261h157.299l23.381 182.557h-180.681v116.281c0 52.679 14.677 88.747 90.283 88.747h95.799v162.759c-46.592 5.006-93.466 7.396-140.343 7.225-139.038 0-234.496-84.878-234.496-240.697v-133.973h-156.273v-182.557h156.615v-466.603h188.416z" />
<glyph unicode="&#xe961;" glyph-name="fast-forward" d="M110.933 780.42l384-298.5c12.8-8.525 17.067-21.321 17.067-34.112v298.498c0 17.057 8.533 29.85 21.333 38.378 17.067 8.529 34.133 4.265 46.933-4.264l384-298.5c12.8-8.525 17.067-21.321 17.067-34.112s-8.533-25.587-17.067-34.116l-384-298.496c-8.533-4.267-17.067-8.529-25.6-8.529-4.267 0-12.8 0-17.067 4.262-17.067 8.529-25.6 21.325-25.6 38.379v298.5c0-12.791-8.533-25.587-17.067-34.116l-384-298.496c-8.533-4.267-17.067-8.529-25.6-8.529-4.267 0-12.8 0-17.067 4.262-17.067 8.529-25.6 21.325-25.6 38.379v596.998c0 17.057 8.533 29.85 25.6 38.378 12.8 8.529 29.867 4.265 42.667-4.264zM870.4 447.808l-273.067 213.213v-426.427l273.067 213.214zM401.067 447.808l-273.067 213.213v-426.427l273.067 213.214z" />
<glyph unicode="&#xe962;" glyph-name="feather" d="M891.733 831.031c119.467-119.331 119.467-306.85 0-421.922l-285.867-289.801c-8.533-8.525-17.067-12.787-29.867-12.787h-345.6l-115.2-115.068c-8.533-8.525-17.067-12.787-29.867-12.787s-21.333 4.262-29.867 12.787c-17.067 17.045-17.067 42.615 0 59.665l115.2 115.068v345.207c0 12.787 4.267 21.308 12.8 29.833l285.867 289.804c115.2 115.069 307.2 115.069 422.4 0zM558.933 191.757l85.333 85.239h-243.2l-85.333-85.239h243.2zM729.6 362.231l102.4 106.543c85.333 80.977 85.333 217.355 4.267 302.592-85.333 85.236-217.6 85.236-302.933 0l-277.333-277.017v-242.927l396.8 396.351c17.067 17.047 42.667 17.047 59.733 0s17.067-42.618 0-59.665l-226.133-225.876h243.2z" />
<glyph unicode="&#xe963;" glyph-name="female" d="M746.667 554.667c0 129.707-104.96 234.667-234.667 234.667s-234.667-104.96-234.667-234.667c0-115.2 82.773-210.347 192-230.4v-89.6h-85.333v-85.333h85.333v-85.333h85.333v85.333h85.333v85.333h-85.333v89.6c109.227 20.053 192 115.2 192 230.4zM362.667 554.667c0 82.347 66.987 149.333 149.333 149.333s149.333-66.987 149.333-149.333c0-82.347-66.987-149.333-149.333-149.333s-149.333 66.987-149.333 149.333z" />
<glyph unicode="&#xe964;" glyph-name="file" d="M891.733 593.067c4.267-4.267 4.267-12.8 4.267-17.067v-469.333c0-72.533-55.467-128-128-128h-512c-72.533 0-128 55.467-128 128v682.667c0 72.533 55.467 128 128 128h298.667c4.267 0 12.8 0 17.067-4.267 4.267 0 8.533-4.267 12.8-8.533l298.667-298.667c2.133-2.133 3.2-4.267 4.267-6.4s2.133-4.267 4.267-6.4zM597.333 772.267v-153.6h153.6l-153.6 153.6zM256 64h512c25.6 0 42.667 17.067 42.667 42.667v426.667h-256c-25.6 0-42.667 17.067-42.667 42.667v256h-256c-25.6 0-42.667-17.067-42.667-42.667v-682.667c0-25.6 17.067-42.667 42.667-42.667z" />
<glyph unicode="&#xe965;" glyph-name="file-minus" d="M887.467 642.133c-1.067 2.133-2.133 4.267-4.267 6.4l-256 256c-4.267 4.267-8.533 8.533-12.8 8.533-4.267 4.267-12.8 4.267-17.067 4.267h-341.333c-72.533 0-128-55.467-128-128v-682.667c0-72.533 55.467-128 128-128h512c72.533 0 128 55.467 128 128v512c0 4.267 0 12.8-4.267 17.067-2.133 2.133-3.2 4.267-4.267 6.4zM750.933 661.333h-110.933v110.933l110.933-110.933zM768 64h-512c-25.6 0-42.667 17.067-42.667 42.667v682.667c0 25.6 17.067 42.667 42.667 42.667h298.667v-213.333c0-25.6 17.067-42.667 42.667-42.667h213.333v-469.333c0-25.6-17.067-42.667-42.667-42.667zM640 277.333h-256c-25.6 0-42.667 17.067-42.667 42.667s17.067 42.667 42.667 42.667h256c25.6 0 42.667-17.067 42.667-42.667s-17.067-42.667-42.667-42.667z" />
<glyph unicode="&#xe966;" glyph-name="file-plus" d="M887.467 642.133c-1.067 2.133-2.133 4.267-4.267 6.4l-256 256c-4.267 4.267-8.533 8.533-12.8 8.533-4.267 4.267-12.8 4.267-17.067 4.267h-341.333c-72.533 0-128-55.467-128-128v-682.667c0-72.533 55.467-128 128-128h512c72.533 0 128 55.467 128 128v512c0 4.267 0 12.8-4.267 17.067-2.133 2.133-3.2 4.267-4.267 6.4zM750.933 661.333h-110.933v110.933l110.933-110.933zM768 64h-512c-25.6 0-42.667 17.067-42.667 42.667v682.667c0 25.6 17.067 42.667 42.667 42.667h298.667v-213.333c0-25.6 17.067-42.667 42.667-42.667h213.333v-469.333c0-25.6-17.067-42.667-42.667-42.667zM640 277.333h-85.333v-85.333c0-25.6-17.067-42.667-42.667-42.667s-42.667 17.067-42.667 42.667v85.333h-85.333c-25.6 0-42.667 17.067-42.667 42.667s17.067 42.667 42.667 42.667h85.333v85.333c0 25.6 17.067 42.667 42.667 42.667s42.667-17.067 42.667-42.667v-85.333h85.333c25.6 0 42.667-17.067 42.667-42.667s-17.067-42.667-42.667-42.667z" />
<glyph unicode="&#xe967;" glyph-name="file-text" d="M887.467 642.133c-1.067 2.133-2.133 4.267-4.267 6.4l-256 256c-4.267 4.267-8.533 8.533-12.8 8.533-4.267 4.267-12.8 4.267-17.067 4.267h-341.333c-72.533 0-128-55.467-128-128v-682.667c0-72.533 55.467-128 128-128h512c72.533 0 128 55.467 128 128v512c0 4.267 0 12.8-4.267 17.067-2.133 2.133-3.2 4.267-4.267 6.4zM750.933 661.333h-110.933v110.933l110.933-110.933zM768 64h-512c-25.6 0-42.667 17.067-42.667 42.667v682.667c0 25.6 17.067 42.667 42.667 42.667h298.667v-213.333c0-25.6 17.067-42.667 42.667-42.667h213.333v-469.333c0-25.6-17.067-42.667-42.667-42.667zM682.667 192h-341.333c-25.6 0-42.667 17.067-42.667 42.667s17.067 42.667 42.667 42.667h341.333c25.6 0 42.667-17.067 42.667-42.667s-17.067-42.667-42.667-42.667zM725.333 405.333c0 25.6-17.067 42.667-42.667 42.667h-341.333c-25.6 0-42.667-17.067-42.667-42.667s17.067-42.667 42.667-42.667h341.333c25.6 0 42.667 17.067 42.667 42.667zM341.333 618.667h85.333c25.6 0 42.667-17.067 42.667-42.667s-17.067-42.667-42.667-42.667h-85.333c-25.6 0-42.667 17.067-42.667 42.667s17.067 42.667 42.667 42.667z" />
<glyph unicode="&#xe968;" glyph-name="film" d="M844.8 917.333h-665.6c-76.8 0-136.533-59.733-136.533-136.533v-665.6c0-76.8 59.733-136.533 136.533-136.533h665.6c76.8 0 136.533 59.733 136.533 136.533v665.6c0 76.8-59.733 136.533-136.533 136.533zM844.8 64h-76.8v128h128v-76.8c0-29.867-21.333-51.2-51.2-51.2zM128 192h128v-128h-76.8c-29.867 0-51.2 21.333-51.2 51.2v76.8zM768 405.333h128v-128h-128v128zM682.667 405.333v-341.333h-341.333v341.333h341.333zM128 405.333h128v-128h-128v128zM896 618.667v-128h-128v128h128zM256 490.667h-128v128h128v-128zM896 704h-128v128h76.8c29.867 0 51.2-21.333 51.2-51.2v-76.8zM682.667 490.667h-341.333v341.333h341.333v-341.333zM256 832v-128h-128v76.8c0 29.867 21.333 51.2 51.2 51.2h76.8z" />
<glyph unicode="&#xe969;" glyph-name="filter" d="M939.051 874.667c17.067 0 29.867-8.533 38.4-25.6 8.533-12.8 4.267-29.867-4.267-42.667l-332.8-392.533v-349.867c0-17.067-8.533-29.867-21.333-38.4-4.267-4.267-12.8-4.267-21.333-4.267s-12.8 0-17.067 4.267l-170.666 85.333c-17.067 8.533-25.6 21.333-25.6 38.4v264.533l-332.8 392.533c-8.533 12.8-12.8 29.867-4.267 42.667 8.533 17.067 21.333 25.6 38.4 25.6h853.332zM555.051 426.667c0 12.8 4.267 21.333 8.533 29.867l285.867 332.8h-669.866l281.599-337.067c4.267-4.267 8.533-17.067 8.533-25.6v-251.733l85.333-42.667v294.4z" />
<glyph unicode="&#xe96a;" glyph-name="fitness-center" d="M877.653 325.973l61.013 61.013-61.013 61.013-152.32-152.32-365.653 365.653 152.32 152.32-61.013 61.013-61.013-61.013-61.013 61.013-91.307-91.307-61.013 61.013-61.013-61.013 61.013-61.013-91.307-91.307 61.013-61.013-61.013-61.013 61.013-61.013 152.32 152.32 365.653-365.653-152.32-152.32 61.013-61.013 61.013 61.013 61.013-61.013 91.307 91.307 61.013-61.013 61.013 61.013-61.013 61.013 91.307 91.307-61.013 61.013z" />
<glyph unicode="&#xe96b;" glyph-name="flag" d="M823.467 861.867c12.8 12.8 29.867 17.067 46.933 8.533s25.6-21.333 25.6-38.4v-512c0-12.8-4.267-21.333-12.8-29.867s-64-55.467-200.533-55.467c-66.829 0-122.79 21.73-174.562 41.835-4.42 1.715-8.806 3.422-13.171 5.099-9.818 3.273-19.482 6.703-29.077 10.112-40.439 14.353-79.694 28.288-124.523 28.288-68.267 0-110.933-12.8-128-21.333v-277.333c0-25.6-17.067-42.667-42.667-42.667s-42.667 17.067-42.667 42.667v810.667c0 12.8 4.267 21.333 12.8 29.867s64 55.467 200.533 55.467c72.533 0 132.267-21.333 187.733-46.933 9.818-3.273 19.482-6.703 29.077-10.11 40.439-14.355 79.693-28.29 124.523-28.29 102.4 0 140.8 29.867 140.8 29.867zM682.667 320c68.267 0 110.933 12.8 128 21.333v422.4c-29.867-8.533-72.533-17.067-128-17.067-72.533 0-132.267 21.333-187.733 46.933-9.818 3.273-19.482 6.703-29.077 10.11-40.439 14.355-79.694 28.29-124.523 28.29-68.267 0-110.933-12.8-128-21.333v-422.4c29.867 8.533 72.533 17.067 128 17.067 72.533 0 132.267-21.333 187.733-46.933 9.818-3.273 19.482-6.703 29.077-10.112 40.439-14.353 79.693-28.288 124.523-28.288z" />
<glyph unicode="&#xe96c;" d="M32 448c0-94.4 27.2-182.4 73.6-256h811.2c46.4 73.6 73.6 161.6 73.6 256s-27.2 182.4-73.6 256h-811.2c-46.4-73.6-73.6-161.6-73.6-256z" />
<glyph unicode="&#xe96d;" d="M105.6 192c84.8-134.4 235.2-224 406.4-224s321.6 89.6 406.4 224h-812.8z" />
<glyph unicode="&#xe96e;" d="M918.4 704c-84.8 134.4-235.2 224-406.4 224s-321.6-89.6-406.4-224h812.8z" />
<glyph unicode="&#xe96f;" d="M734.4 388.8v49.6c1.6 6.4 6.4 11.2 11.2 12.8v44.8c-4.8 0-8-6.4-8-8v19.2c-1.6 1.6-4.8 1.6-8 0v-4.8h-9.6v20.8c-3.2 0-3.2-9.6-9.6-9.6-3.2 0-3.2 4.8-1.6 8s3.2 8 1.6 14.4c-1.6-4.8-6.4-8-6.4-3.2 1.6 6.4 6.4 8 3.2 17.6-1.6-8-6.4-8-4.8-3.2s4.8 8 0 16c-1.6-8-4.8-8-4.8-3.2 0 8 0 16-9.6 19.2 0 0 0 8-4.8 8s-4.8-8-4.8-8c-9.6-3.2-9.6-11.2-9.6-19.2 0-4.8-3.2-6.4-4.8 3.2-3.2-8 0-9.6 0-16 1.6-4.8-3.2-4.8-4.8 3.2-3.2-9.6 1.6-11.2 3.2-17.6 1.6-3.2-4.8-1.6-6.4 4.8-3.2-8 0-12.8 1.6-14.4 1.6-3.2 1.6-8-1.6-8-6.4 0-6.4 9.6-9.6 9.6v-38.4h-75.2v33.6c-4.8-1.6-6.4-6.4-6.4-6.4v-6.4h-4.8c0 0-3.2 0-3.2 6.4s1.6 9.6 6.4 9.6v12.8c0 0-11.2-1.6-11.2-14.4v11.2c-3.2 0-3.2-4.8-3.2-16h-3.2v11.2c0 6.4 6.4 6.4 6.4 11.2 0 0 1.6 8-1.6 11.2-3.2-9.6-6.4-8-6.4-3.2 0 3.2 3.2 6.4 8 16 1.6 3.2 0 11.2-1.6 14.4-1.6-8-1.6-11.2-4.8-11.2-1.6 0-3.2 1.6-3.2 4.8 0 4.8 3.2 6.4 4.8 11.2s0 9.6-1.6 12.8c-1.6-8-1.6-9.6-3.2-9.6-6.4 1.6 0 11.2 1.6 14.4 1.6 4.8-1.6 8-1.6 8-1.6-6.4-3.2-6.4-4.8-6.4-3.2 0-1.6 4.8 1.6 8 1.6 1.6 1.6 4.8 0 8-1.6-4.8-6.4-4.8-4.8-1.6l1.6 9.6h-4.8v20.8h-6.4c0 4.8-3.2 9.6-9.6 9.6s-8-6.4-9.6-9.6h-9.6v-20.8h-4.8l1.6-11.2c0-3.2-3.2-3.2-4.8 1.6-1.6-3.2-3.2-6.4 0-8 3.2-3.2 3.2-8 1.6-8s-3.2 0-4.8 6.4c0 0-3.2-4.8-1.6-8 1.6-1.6 8-11.2 1.6-14.4-3.2 0-3.2 3.2-3.2 9.6-3.2-3.2-4.8-8-1.6-12.8 1.6-4.8 4.8-6.4 4.8-11.2 0-3.2-1.6-4.8-3.2-4.8-3.2 0-4.8 3.2-4.8 11.2-1.6-3.2-3.2-11.2-1.6-14.4 4.8-8 8-11.2 8-16 0-3.2-4.8-6.4-6.4 3.2-1.6-3.2-1.6-11.2-1.6-11.2 0-4.8 6.4-4.8 6.4-11.2v-12.8h-3.2c0 11.2 0 16-4.8 16v-11.2c0 12.8-11.2 14.4-11.2 14.4v-12.8c4.8 0 6.4-3.2 6.4-9.6s-3.2-6.4-3.2-6.4h-6.4v6.4c0 0-1.6 4.8-6.4 6.4v-33.6h-73.6v38.4c-3.2 0-3.2-9.6-9.6-9.6-3.2 0-3.2 4.8-1.6 8s3.2 8 1.6 14.4c-1.6-6.4-6.4-8-6.4-4.8 1.6 6.4 6.4 8 3.2 17.6-1.6-8-6.4-8-4.8-3.2s4.8 8 0 16c-1.6-8-4.8-8-4.8-3.2 0 8 0 16-9.6 19.2 0 0 0 8-4.8 8s-6.4-4.8-6.4-4.8c-9.6-3.2-9.6-11.2-9.6-19.2 0-4.8-3.2-6.4-4.8 3.2-3.2-8 0-9.6 0-16 1.6-4.8-3.2-4.8-4.8 3.2-3.2-9.6 1.6-11.2 3.2-17.6 1.6-3.2-4.8-1.6-6.4 4.8-3.2-8 0-12.8 1.6-14.4 1.6-3.2 1.6-8-1.6-8-6.4 0-6.4 9.6-9.6 9.6v-20.8h-8v4.8c-3.2 1.6-6.4 1.6-8 0v-19.2c0 0-3.2 8-8 8v-46.4c3.2-1.6 9.6-6.4 11.2-12.8v-49.6c-1.6-4.8-6.4-11.2-9.6-12.8h465.6c-6.4 1.6-11.2 6.4-12.8 12.8z" />
<glyph unicode="&#xe970;" d="M795.2 286.4v30.4h-16v25.6h-14.4v19.2h-8v14.4h-489.6v-14.4h-8v-19.2h-14.4v-25.6h-16v-30.4h-14.4v-30.4h595.2v30.4h-14.4z" />
<glyph unicode="&#xe971;" d="M710.4 376c-3.2 1.6-9.6 6.4-9.6 12.8v52.8l4.8 8h1.6v16c-3.2-1.6-4.8-3.2-8-3.2 0 1.6-1.6 3.2-1.6 4.8 1.6 3.2 8 8 9.6 11.2v12.8c-1.6 0-3.2-1.6-4.8-1.6 3.2 3.2 4.8 8 4.8 9.6v12.8c-3.2 0-8-3.2-9.6-8 0 3.2-1.6 6.4-3.2 9.6 1.6 1.6 6.4 6.4 6.4 9.6v8c-3.2 0-4.8-1.6-8-4.8 0 1.6 0 1.6-1.6 3.2l4.8 6.4v8c-1.6 0-3.2-1.6-4.8-3.2 0 1.6-1.6 3.2-1.6 3.2l1.6 4.8v6.4c-1.6 0-1.6 0-3.2-1.6 0 1.6-1.6 3.2-1.6 3.2h1.6l4.8 3.2v4.8c-1.6 0-1.6 0-3.2-1.6-1.6 3.2-3.2 4.8-6.4 6.4-3.2-1.6-4.8-3.2-6.4-6.4-1.6 1.6-1.6 1.6-3.2 1.6v-4.8l4.8-3.2h1.6c0-1.6-1.6-1.6-1.6-3.2-1.6 1.6-1.6 1.6-3.2 1.6v-6.4l1.6-4.8c-1.6-1.6-1.6-1.6-1.6-4.8-1.6 3.2-3.2 3.2-4.8 3.2v-8l4.8-6.4c0-1.6 0-1.6-1.6-3.2-1.6 3.2-3.2 3.2-6.4 4.8v-8c0-3.2 4.8-8 6.4-9.6-1.6-3.2-1.6-6.4-3.2-9.6-3.2 4.8-6.4 8-9.6 8v-12.8c0-1.6 3.2-6.4 4.8-9.6-1.6 1.6-3.2 1.6-4.8 1.6v-12.8c1.6-3.2 8-9.6 9.6-12.8 0-1.6-1.6-3.2-1.6-4.8-1.6 1.6-4.8 3.2-8 4.8v-16h1.6l4.8-8v-52.8c0-4.8-6.4-9.6-9.6-12.8h8v-118.4h36.8v120h8z" />
<glyph unicode="&#xe972;" d="M364.8 376c-3.2 1.6-9.6 6.4-9.6 12.8v52.8l4.8 8h1.6v16c-3.2-1.6-4.8-3.2-8-4.8 0 1.6-1.6 3.2-1.6 4.8 1.6 1.6 8 9.6 9.6 12.8v12.8c-1.6 0-3.2-1.6-4.8-1.6 3.2 3.2 4.8 6.4 4.8 9.6v12.8c-3.2 0-8-3.2-9.6-8 0 3.2-1.6 6.4-3.2 9.6 1.6 1.6 6.4 6.4 6.4 9.6v8c-3.2 0-4.8-1.6-8-4.8 0 1.6 0 1.6-1.6 3.2l4.8 6.4v8c-1.6 0-3.2-1.6-4.8-3.2 0 1.6-1.6 3.2-1.6 4.8l1.6 4.8v6.4c-1.6 0-1.6 0-3.2-1.6 0 1.6-1.6 3.2-1.6 3.2h1.6l4.8 3.2v4.8c-1.6 0-1.6 0-3.2-1.6-1.6 3.2-3.2 4.8-6.4 6.4-3.2-1.6-4.8-3.2-6.4-6.4-1.6 1.6-1.6 1.6-3.2 1.6v-4.8l4.8-3.2h3.2c0-1.6-1.6-1.6-1.6-3.2-1.6 1.6-1.6 1.6-3.2 1.6v-6.4l1.6-4.8c0-1.6-1.6-1.6-1.6-3.2-1.6 3.2-3.2 3.2-4.8 3.2v-8l4.8-6.4c0-1.6 0-1.6-1.6-3.2-1.6 3.2-4.8 4.8-8 4.8v-8c0-3.2 4.8-8 6.4-9.6-1.6-3.2-1.6-6.4-3.2-9.6-3.2 4.8-6.4 8-9.6 8v-12.8c0-1.6 3.2-6.4 4.8-9.6-1.6 1.6-3.2 1.6-4.8 1.6v-12.8c1.6-3.2 6.4-9.6 9.6-11.2 0-1.6-1.6-3.2-1.6-4.8-1.6-1.6-3.2 0-6.4 0v-16l4.8-8v-52.8c0-4.8-6.4-9.6-9.6-12.8h8v-118.4h36.8v120h8z" />
<glyph unicode="&#xe973;" d="M539.2 507.2v16c-6.4-1.6-9.6-6.4-11.2-9.6 0 3.2-1.6 6.4-3.2 9.6 1.6 6.4 3.2 9.6 6.4 12.8h1.6v14.4c-4.8-1.6-8-4.8-9.6-8 0 1.6-1.6 6.4-3.2 9.6l4.8 8h6.4v14.4c-4.8-1.6-8-4.8-8-8 0 1.6-1.6 6.4-3.2 9.6l8 6.4v9.6c-3.2-1.6-8-1.6-8-8 0 3.2-1.6 6.4-1.6 8l8 6.4v9.6c-3.2 0-6.4-1.6-6.4-4.8 0 1.6-1.6 3.2-1.6 4.8l4.8 3.2v8c-1.6 0-4.8-1.6-4.8-4.8 0 4.8-1.6 4.8-4.8 6.4-1.6-1.6-3.2-1.6-4.8-6.4 0 3.2-3.2 3.2-4.8 4.8v-8l4.8-3.2c0-1.6-1.6-3.2-1.6-4.8 0 4.8-3.2 4.8-6.4 4.8v-8l8-6.4c-1.6-1.6-1.6-4.8-1.6-8 0 6.4-4.8 6.4-8 8v-11.2l6.4-6.4c-1.6-3.2-3.2-8-3.2-9.6-1.6 3.2-4.8 6.4-8 8v-14.4h1.6l4.8-8c-1.6-3.2-3.2-6.4-3.2-9.6-1.6 3.2-4.8 6.4-9.6 8v-14.4h1.6c3.2-1.6 6.4-6.4 6.4-12.8v-8c-1.6 3.2-6.4 8-11.2 9.6v-16h3.2c4.8-6.4 6.4-16 6.4-22.4l-4.8 4.8v-16h16c-3.2-4.8-4.8-9.6-4.8-16-4.8 1.6-4.8 3.2-9.6 4.8v-16l3.2-4.8v-56c0-4.8-6.4-9.6-9.6-12.8h8v-118.4h36.8v120h8c-3.2 1.6-9.6 6.4-9.6 12.8v56l3.2 4.8v16c-6.4-1.6-6.4-3.2-8-8 0 4.8-1.6 11.2-4.8 16h16v16c-1.6-1.6-3.2-1.6-4.8-3.2 0 8 1.6 16 6.4 22.4 1.6-1.6 3.2-1.6 3.2-1.6z" />
<glyph unicode="&#xe974;" d="M512-32c265.097 0 480 214.903 480 480s-214.903 480-480 480c-265.097 0-480-214.903-480-480s214.903-480 480-480z" />
<glyph unicode="&#xe975;" d="M352 505.6l128-89.6-48 147.2 128 92.8h-158.4l-49.6 144-48-144h-160l128-92.8-48-147.2 128 89.6z" />
<glyph unicode="&#xe976;" d="M564.8 395.2l-36.8-8 35.2-14.4v-36.8l24 27.2 35.2-12.8-20.8 30.4 22.4 28.8-36.8-8-22.4 30.4v-36.8z" />
<glyph unicode="&#xe977;" d="M619.2 504l-27.2-24 36.8 3.2 16-35.2 6.4 36.8 36.8 3.2-32 19.2 8 36.8-27.2-24-32 19.2 14.4-35.2z" />
<glyph unicode="&#xe978;" d="M628.8 628.8l11.2-36.8 11.2 35.2h36.8l-28.8 22.4 11.2 36.8-30.4-22.4-28.8 24 11.2-36.8-30.4-20.8 36.8-1.6z" />
<glyph unicode="&#xe979;" d="M564.8 756.8v-36.8l22.4 30.4 36.8-8-22.4 28.8 20.8 30.4-35.2-14.4-24 28.8v-36.8l-35.2-14.4 36.8-8z" />
<glyph unicode="&#xe97a;" d="M510.4-32c265.097 0 480 214.903 480 480s-214.903 480-480 480c-265.097 0-480-214.903-480-480s214.903-480 480-480z" />
<glyph unicode="&#xe97b;" d="M478.4 515.2c11.2 28.8 38.4 33.6 52.8 70.4 6.4 16-4.8 48 1.6 64 14.4 36.8 51.2 30.4 51.2 30.4-65.6 24-139.2-9.6-163.2-73.6s9.6-136 75.2-158.4c-17.6 19.2-27.2 41.6-17.6 67.2z" />
<glyph unicode="&#xe97c;" d="M424 451.2c-24 19.2-20.8 46.4-52.8 70.4-14.4 11.2-48 9.6-62.4 20.8-32 24-12.8 57.6-12.8 57.6-43.2-54.4-33.6-132.8 22.4-174.4 54.4-41.6 134.4-32 177.6 20.8-25.6-9.6-49.6-11.2-72 4.8z" />
<glyph unicode="&#xe97d;" d="M470.4 380.8c-25.6-17.6-51.2-4.8-84.8-27.2-14.4-9.6-24-41.6-38.4-51.2-33.6-22.4-60.8 4.8-60.8 4.8 38.4-57.6 118.4-72 176-33.6s73.6 115.2 35.2 172.8c1.6-27.2-4.8-49.6-27.2-65.6z" />
<glyph unicode="&#xe97e;" d="M400 315.2c4.8 6.4 14.4 8 20.8 3.2s8-14.4 3.2-20.8c-4.8-6.4-14.4-8-20.8-3.2s-8 14.4-3.2 20.8z" />
<glyph unicode="&#xe97f;" d="M552 401.6c8-28.8-11.2-49.6 0-88 4.8-16 32-35.2 36.8-52.8 11.2-38.4-24-54.4-24-54.4 67.2 19.2 105.6 88 86.4 153.6s-89.6 104-156.8 84.8c28.8-4.8 49.6-16 57.6-43.2z" />
<glyph unicode="&#xe980;" d="M601.6 316.8c-4.8 6.4-3.2 16 3.2 20.8s16 3.2 20.8-3.2c4.8-6.4 3.2-16-3.2-20.8-8-6.4-16-4.8-20.8 3.2z" />
<glyph unicode="&#xe981;" d="M332.8 473.6c7.953 0 14.4 6.447 14.4 14.4s-6.447 14.4-14.4 14.4c-7.953 0-14.4-6.447-14.4-14.4s6.447-14.4 14.4-14.4z" />
<glyph unicode="&#xe982;" d="M556.8 484.8c32-1.6 44.8-25.6 84.8-27.2 17.6 0 44.8 19.2 62.4 19.2 40-1.6 44.8-38.4 44.8-38.4 3.2 68.8-52.8 126.4-121.6 128-70.4 1.6-128-51.2-131.2-120 14.4 24 33.6 40 60.8 38.4z" />
<glyph unicode="&#xe983;" d="M662.4 504c-8-3.2-16 1.6-19.2 9.6s1.6 16 9.6 19.2c8 3.2 16-1.6 19.2-9.6s-1.6-17.6-9.6-19.2z" />
<glyph unicode="&#xe984;" d="M484.8 604.8c7.953 0 14.4 6.447 14.4 14.4s-6.447 14.4-14.4 14.4c-7.953 0-14.4-6.447-14.4-14.4s6.447-14.4 14.4-14.4z" />
<glyph unicode="&#xe985;" d="M272 32v832c-144-83.2-240-238.4-240-416s96-332.8 240-416z" />
<glyph unicode="&#xe986;" d="M512 928c-88 0-169.6-24-240-64v-832c70.4-41.6 152-64 240-64 265.6 0 480 214.4 480 480s-214.4 480-480 480z" />
<glyph unicode="&#xe987;" d="M272 640c-105.6 0-192-86.4-192-192s86.4-192 192-192c105.6 0 192 86.4 192 192s-86.4 192-192 192zM272 280c-92.8 0-168 75.2-168 168s75.2 168 168 168c92.8 0 168-75.2 168-168s-75.2-168-168-168z" />
<glyph unicode="&#xe988;" d="M337.6 260.8c-3.2-3.2-8-3.2-11.2 0l-219.2 289.6c-3.2 3.2-3.2 8 0 11.2l4.8 4.8c3.2 3.2 8 3.2 11.2 0l219.2-289.6c3.2-3.2 3.2-8 0-11.2l-4.8-4.8z" />
<glyph unicode="&#xe989;" d="M275.2 648c4.8 0 8-3.2 8-8v-384c0-4.8-3.2-8-8-8h-8c-4.8 0-8 3.2-8 8v384c0 4.8 3.2 8 8 8h8z" />
<glyph unicode="&#xe98a;" d="M462.4 427.2l-190.4 33.6v-24l187.2-33.6c4.8 0 8 1.6 9.6 6.4l1.6 8c0 3.2-3.2 8-8 9.6z" />
<glyph unicode="&#xe98b;" d="M270.4 337.6c-3.2-1.6-6.4-6.4-3.2-11.2l3.2-8c1.6-3.2 6.4-6.4 11.2-3.2l160 73.6 8 30.4-179.2-81.6z" />
<glyph unicode="&#xe98c;" d="M272 462.4l-150.4 105.6c-3.2 3.2-8 1.6-11.2-1.6l-4.8-6.4c-3.2-3.2-1.6-8 1.6-11.2l164.8-115.2v28.8z" />
<glyph unicode="&#xe98d;" d="M265.6 480l-150.4-150.4c-3.2-3.2-3.2-8 0-11.2l6.4-6.4c3.2-3.2 8-3.2 11.2 0l132.8 132.8v35.2z" />
<glyph unicode="&#xe98e;" d="M145.6 339.2v-24l236.8-16c9.6 6.4 17.6 14.4 25.6 22.4l-262.4 17.6z" />
<glyph unicode="&#xe98f;" d="M272 552l-200-94.4c-3.2-1.6-6.4-6.4-3.2-11.2l3.2-8c1.6-3.2 6.4-6.4 11.2-3.2l188.8 89.6v27.2z" />
<glyph unicode="&#xe990;" d="M270.4 392l-179.2 65.6v-25.6l179.2-65.6v25.6z" />
<glyph unicode="&#xe991;" d="M449.6 524.8l-190.4 33.6v-24l187.2-33.6c4.8 0 8 1.6 9.6 6.4l1.6 8c-1.6 4.8-4.8 9.6-8 9.6z" />
<glyph unicode="&#xe992;" d="M192 528v-112c0-44.8 35.2-80 80-80s80 35.2 80 80v112h-160z" />
<glyph unicode="&#xe993;" d="M272 304c-62.4 0-112 49.6-112 112v144h224v-144c0-62.4-49.6-112-112-112zM224 496v-80c0-27.2 20.8-48 48-48s48 20.8 48 48v80h-96z" />
<glyph unicode="&#xe994;" d="M176 417.6h32l-3.2 16v16h3.2v8h-3.2v-4.8h-3.2v4.8h-3.2v-4.8h-4.8v4.8h-3.2v-4.8h-3.2v4.8h-3.2v-4.8h-3.2v4.8h-4.8v-8h4.8v-16l-4.8-16z" />
<glyph unicode="&#xe995;" d="M196.8 417.6h-1.6v6.4c0 1.6-1.6 3.2-3.2 3.2s-3.2-1.6-3.2-3.2v-6.4h-1.6v6.4c0 3.2 1.6 4.8 4.8 4.8s4.8-1.6 4.8-4.8v-6.4z" />
<glyph unicode="&#xe996;" d="M203.2 435.2h-9.6v8c0 3.2 1.6 4.8 4.8 4.8s4.8-1.6 4.8-4.8v-8zM195.2 436.8h6.4v6.4c0 1.6-1.6 3.2-3.2 3.2s-3.2-1.6-3.2-3.2v-6.4z" />
<glyph unicode="&#xe997;" d="M192 435.2h-9.6v8c0 3.2 1.6 4.8 4.8 4.8s4.8-1.6 4.8-4.8v-8zM184 436.8h6.4v6.4c0 1.6-1.6 3.2-3.2 3.2s-3.2-1.6-3.2-3.2v-6.4z" />
<glyph unicode="&#xe998;" d="M336 416h32l-3.2 16v16h3.2v6.4h-4.8v-3.2h-1.6v3.2h-4.8v-3.2h-3.2v3.2h-3.2v-3.2h-3.2v3.2h-4.8v-3.2h-3.2v3.2h-3.2v-6.4h3.2v-16l-3.2-16z" />
<glyph unicode="&#xe999;" d="M356.8 416h-1.6v6.4c0 1.6-1.6 3.2-3.2 3.2s-3.2-1.6-3.2-3.2v-6.4h-1.6v6.4c0 3.2 1.6 4.8 4.8 4.8s4.8-1.6 4.8-4.8v-6.4z" />
<glyph unicode="&#xe99a;" d="M352 433.6h-9.6v8c0 3.2 1.6 4.8 4.8 4.8s4.8-1.6 4.8-4.8v-8zM344 435.2h6.4v6.4c0 1.6-1.6 3.2-3.2 3.2s-3.2-1.6-3.2-3.2v-6.4z" />
<glyph unicode="&#xe99b;" d="M361.6 433.6h-9.6v8c0 3.2 1.6 4.8 4.8 4.8s4.8-1.6 4.8-4.8v-8zM353.6 435.2h6.4v6.4c0 1.6-1.6 3.2-3.2 3.2s-3.2-1.6-3.2-3.2v-6.4z" />
<glyph unicode="&#xe99c;" d="M257.6 411.2v-27.2c0-4.8 3.2-8 8-8h12.8c4.8 0 8 3.2 8 8v27.2h-28.8z" />
<glyph unicode="&#xe99d;" d="M289.6 449.6v-27.2c0-4.8 3.2-8 8-8h12.8c4.8 0 8 3.2 8 8v27.2h-28.8z" />
<glyph unicode="&#xe99e;" d="M257.6 449.6v-27.2c0-4.8 3.2-8 8-8h12.8c4.8 0 8 3.2 8 8v27.2h-28.8z" />
<glyph unicode="&#xe99f;" d="M225.6 449.6v-27.2c0-4.8 3.2-8 8-8h12.8c4.8 0 8 3.2 8 8v27.2h-28.8z" />
<glyph unicode="&#xe9a0;" d="M257.6 489.6v-25.6c0-4.8 3.2-8 8-8h12.8c4.8 0 8 3.2 8 8v27.2h-28.8v-1.6z" />
<glyph unicode="&#xe9a1;" d="M227.2 326.4l22.4 24-14.4 8-11.2 11.2 3.2 3.2-4.8 4.8-3.2-3.2 3.2-3.2-1.6-1.6-3.2 3.2-3.2-3.2 3.2-1.6-3.2-3.2-1.6 3.2-3.2-3.2 3.2-3.2-3.2-1.6-1.6 3.2-3.2-3.2 1.6-3.2-1.6-1.6-1.6 3.2-3.2-3.2 4.8-4.8h1.6l1.6 1.6 11.2-11.2 8-14.4z" />
<glyph unicode="&#xe9a2;" d="M241.6 342.4l-6.4 3.2c-1.6 1.6-3.2 1.6-4.8 0s-1.6-3.2 0-4.8l4.8-4.8-1.6-1.6-4.8 4.8c-1.6 1.6-1.6 4.8 0 6.4s4.8 1.6 6.4 0l6.4-3.2z" />
<glyph unicode="&#xe9a3;" d="M225.6 350.4l-6.4-6.4-4.8 4.8c-1.6 1.6-1.6 4.8 0 6.4s4.8 1.6 6.4 0l4.8-4.8zM219.2 345.6l4.8 4.8-4.8 4.8c-1.6 1.6-3.2 1.6-4.8 0s-1.6-3.2 0-4.8l4.8-4.8z" />
<glyph unicode="&#xe9a4;" d="M233.6 358.4l-6.4-6.4-4.8 4.8c-1.6 1.6-1.6 4.8 0 6.4s4.8 1.6 6.4 0l4.8-4.8zM227.2 353.6l4.8 4.8-4.8 4.8c-1.6 1.6-3.2 1.6-4.8 0s-1.6-3.2 0-4.8l4.8-4.8z" />
<glyph unicode="&#xe9a5;" d="M316.8 326.4l-22.4 24 12.8 8 11.2 11.2-1.6 3.2 4.8 4.8 3.2-3.2-3.2-3.2 1.6-1.6 3.2 3.2 3.2-3.2-3.2-1.6 3.2-3.2 1.6 3.2 3.2-3.2-3.2-3.2 3.2-1.6 1.6 3.2 3.2-3.2-3.2-3.2 3.2-1.6 1.6 3.2 3.2-3.2-4.8-4.8h-1.6l-1.6 1.6-11.2-11.2-8-14.4z" />
<glyph unicode="&#xe9a6;" d="M302.4 342.4l6.4 3.2c1.6 1.6 3.2 1.6 4.8 0s1.6-3.2 0-4.8l-6.4-4.8 1.6-1.6 4.8 4.8c1.6 1.6 1.6 4.8 0 6.4s-4.8 1.6-6.4 0l-4.8-3.2z" />
<glyph unicode="&#xe9a7;" d="M323.2 355.2c1.6 1.6 4.8 1.6 6.4 0s1.6-4.8 0-6.4l-4.8-4.8-6.4 6.4 4.8 4.8zM328 350.4c1.6 1.6 1.6 3.2 0 4.8s-3.2 1.6-4.8 0l-3.2-4.8 4.8-4.8 3.2 4.8z" />
<glyph unicode="&#xe9a8;" d="M315.2 363.2c1.6 1.6 4.8 1.6 6.4 0s1.6-4.8 0-6.4l-4.8-4.8-6.4 6.4 4.8 4.8zM321.6 358.4c1.6 1.6 1.6 3.2 0 4.8s-3.2 1.6-4.8 0l-4.8-4.8 4.8-4.8 4.8 4.8z" />
<glyph unicode="&#xe9a9;" d="M278.4 382.4c1.768 0 3.2 1.434 3.2 3.2s-1.432 3.2-3.2 3.2c-1.767 0-3.2-1.434-3.2-3.2s1.433-3.2 3.2-3.2z" />
<glyph unicode="&#xe9aa;" d="M265.6 382.4c1.767 0 3.2 1.434 3.2 3.2s-1.433 3.2-3.2 3.2c-1.767 0-3.2-1.434-3.2-3.2s1.433-3.2 3.2-3.2z" />
<glyph unicode="&#xe9ab;" d="M272 390.4c1.767 0 3.2 1.434 3.2 3.2s-1.433 3.2-3.2 3.2c-1.767 0-3.2-1.434-3.2-3.2s1.433-3.2 3.2-3.2z" />
<glyph unicode="&#xe9ac;" d="M278.4 398.4c1.768 0 3.2 1.434 3.2 3.2s-1.432 3.2-3.2 3.2c-1.767 0-3.2-1.434-3.2-3.2s1.433-3.2 3.2-3.2z" />
<glyph unicode="&#xe9ad;" d="M265.6 398.4c1.767 0 3.2 1.434 3.2 3.2s-1.433 3.2-3.2 3.2c-1.767 0-3.2-1.434-3.2-3.2s1.433-3.2 3.2-3.2z" />
<glyph unicode="&#xe9ae;" d="M310.4 422.4c1.768 0 3.2 1.434 3.2 3.2s-1.432 3.2-3.2 3.2c-1.767 0-3.2-1.434-3.2-3.2s1.433-3.2 3.2-3.2z" />
<glyph unicode="&#xe9af;" d="M297.6 422.4c1.767 0 3.2 1.434 3.2 3.2s-1.433 3.2-3.2 3.2c-1.767 0-3.2-1.434-3.2-3.2s1.433-3.2 3.2-3.2z" />
<glyph unicode="&#xe9b0;" d="M278.4 422.4c1.768 0 3.2 1.434 3.2 3.2s-1.432 3.2-3.2 3.2c-1.767 0-3.2-1.434-3.2-3.2s1.433-3.2 3.2-3.2z" />
<glyph unicode="&#xe9b1;" d="M265.6 422.4c1.767 0 3.2 1.434 3.2 3.2s-1.433 3.2-3.2 3.2c-1.767 0-3.2-1.434-3.2-3.2s1.433-3.2 3.2-3.2z" />
<glyph unicode="&#xe9b2;" d="M246.4 422.4c1.768 0 3.2 1.434 3.2 3.2s-1.432 3.2-3.2 3.2c-1.767 0-3.2-1.434-3.2-3.2s1.433-3.2 3.2-3.2z" />
<glyph unicode="&#xe9b3;" d="M233.6 422.4c1.767 0 3.2 1.434 3.2 3.2s-1.433 3.2-3.2 3.2c-1.767 0-3.2-1.434-3.2-3.2s1.433-3.2 3.2-3.2z" />
<glyph unicode="&#xe9b4;" d="M304 430.4c1.767 0 3.2 1.434 3.2 3.2s-1.433 3.2-3.2 3.2c-1.767 0-3.2-1.434-3.2-3.2s1.433-3.2 3.2-3.2z" />
<glyph unicode="&#xe9b5;" d="M272 430.4c1.767 0 3.2 1.434 3.2 3.2s-1.433 3.2-3.2 3.2c-1.767 0-3.2-1.434-3.2-3.2s1.433-3.2 3.2-3.2z" />
<glyph unicode="&#xe9b6;" d="M240 430.4c1.767 0 3.2 1.434 3.2 3.2s-1.433 3.2-3.2 3.2c-1.767 0-3.2-1.434-3.2-3.2s1.433-3.2 3.2-3.2z" />
<glyph unicode="&#xe9b7;" d="M310.4 438.4c1.768 0 3.2 1.434 3.2 3.2s-1.432 3.2-3.2 3.2c-1.767 0-3.2-1.434-3.2-3.2s1.433-3.2 3.2-3.2z" />
<glyph unicode="&#xe9b8;" d="M297.6 438.4c1.767 0 3.2 1.434 3.2 3.2s-1.433 3.2-3.2 3.2c-1.767 0-3.2-1.434-3.2-3.2s1.433-3.2 3.2-3.2z" />
<glyph unicode="&#xe9b9;" d="M278.4 438.4c1.768 0 3.2 1.434 3.2 3.2s-1.432 3.2-3.2 3.2c-1.767 0-3.2-1.434-3.2-3.2s1.433-3.2 3.2-3.2z" />
<glyph unicode="&#xe9ba;" d="M265.6 438.4c1.767 0 3.2 1.434 3.2 3.2s-1.433 3.2-3.2 3.2c-1.767 0-3.2-1.434-3.2-3.2s1.433-3.2 3.2-3.2z" />
<glyph unicode="&#xe9bb;" d="M246.4 438.4c1.768 0 3.2 1.434 3.2 3.2s-1.432 3.2-3.2 3.2c-1.767 0-3.2-1.434-3.2-3.2s1.433-3.2 3.2-3.2z" />
</font>
</defs>
</svg>
